<svg width="1600" height="900" viewBox="0 0 1600 900" fill="none" xmlns="http://www.w3.org/2000/svg">
<mask id="mask0" mask-type="alpha" maskUnits="userSpaceOnUse" x="0" y="0" width="1600" height="900">
<rect width="1600" height="900" fill="#676767"/>
</mask>
<g mask="url(#mask0)">
<line y1="-1.5" x2="1937.62" y2="-1.5" transform="matrix(-0.718109 -0.761921 -0.290573 -0.91274 1513.77 1280.66)" stroke="#FFCC9D" stroke-width="3"/>
<line y1="-1.5" x2="1937.62" y2="-1.5" transform="matrix(-0.718108 -0.761921 -0.290573 -0.91274 1527.55 1277.87)" stroke="#FFCC9D" stroke-width="3"/>
<line y1="-1.5" x2="1937.62" y2="-1.5" transform="matrix(-0.718108 -0.761921 -0.290573 -0.91274 1541.32 1275.08)" stroke="#FFCC9D" stroke-width="3"/>
<line y1="-1.5" x2="1937.62" y2="-1.5" transform="matrix(-0.718108 -0.761921 -0.290573 -0.91274 1555.09 1272.29)" stroke="#FFCC9D" stroke-width="3"/>
<line y1="-1.5" x2="1937.62" y2="-1.5" transform="matrix(-0.718109 -0.761921 -0.290573 -0.91274 1568.87 1269.5)" stroke="#FFCC9D" stroke-width="3"/>
<line y1="-1.5" x2="1937.62" y2="-1.5" transform="matrix(-0.718109 -0.761921 -0.290573 -0.91274 1582.64 1266.71)" stroke="#FFCC9D" stroke-width="3"/>
<line y1="-1.5" x2="1937.62" y2="-1.5" transform="matrix(-0.718108 -0.761921 -0.290573 -0.91274 1596.41 1263.92)" stroke="#FFCC9D" stroke-width="3"/>
<line y1="-1.5" x2="1937.62" y2="-1.5" transform="matrix(-0.718108 -0.761921 -0.290573 -0.91274 1610.19 1261.13)" stroke="#FFCC9D" stroke-width="3"/>
<line y1="-1.5" x2="1937.62" y2="-1.5" transform="matrix(-0.718108 -0.761921 -0.290573 -0.91274 1623.96 1258.34)" stroke="#FFCC9D" stroke-width="3"/>
<line y1="-1.5" x2="1937.62" y2="-1.5" transform="matrix(-0.718109 -0.761921 -0.290573 -0.91274 1637.73 1255.55)" stroke="#FFCC9D" stroke-width="3"/>
<line y1="-1.5" x2="1937.62" y2="-1.5" transform="matrix(-0.718108 -0.761921 -0.290573 -0.91274 1651.51 1252.76)" stroke="#FFCC9D" stroke-width="3"/>
<line y1="-1.5" x2="1937.62" y2="-1.5" transform="matrix(-0.718109 -0.761921 -0.290573 -0.91274 1665.28 1249.97)" stroke="#FFCC9D" stroke-width="3"/>
<line y1="-1.5" x2="1937.62" y2="-1.5" transform="matrix(-0.718108 -0.761921 -0.290573 -0.91274 1679.05 1247.18)" stroke="#FFCC9D" stroke-width="3"/>
<line y1="-1.5" x2="1937.62" y2="-1.5" transform="matrix(-0.718108 -0.761921 -0.290573 -0.91274 1692.82 1244.39)" stroke="#FFCC9D" stroke-width="3"/>
<line y1="-1.5" x2="1937.62" y2="-1.5" transform="matrix(-0.718109 -0.761921 -0.290573 -0.91274 1706.6 1241.6)" stroke="#FFCC9D" stroke-width="3"/>
<line y1="-1.5" x2="1937.62" y2="-1.5" transform="matrix(-0.718108 -0.761921 -0.290573 -0.91274 1720.37 1238.81)" stroke="#FFCC9D" stroke-width="3"/>
<line y1="-1.5" x2="1937.62" y2="-1.5" transform="matrix(-0.718108 -0.761921 -0.290573 -0.91274 1734.14 1236.02)" stroke="#FFCC9D" stroke-width="3"/>
<line y1="-1.5" x2="1937.62" y2="-1.5" transform="matrix(-0.718108 -0.761921 -0.290573 -0.91274 1747.92 1233.23)" stroke="#FFCC9D" stroke-width="3"/>
<line y1="-1.5" x2="1937.62" y2="-1.5" transform="matrix(-0.718108 -0.761921 -0.290573 -0.91274 1761.69 1230.44)" stroke="#FFCC9D" stroke-width="3"/>
<line y1="-1.5" x2="1937.62" y2="-1.5" transform="matrix(-0.718108 -0.761921 -0.290573 -0.91274 1775.46 1227.65)" stroke="#FFCC9D" stroke-width="3"/>
<line y1="-1.5" x2="1937.62" y2="-1.5" transform="matrix(-0.718109 -0.761921 -0.290573 -0.91274 1789.24 1224.86)" stroke="#FFCC9D" stroke-width="3"/>
<line y1="-1.5" x2="1937.62" y2="-1.5" transform="matrix(-0.718109 -0.761921 -0.290573 -0.91274 1803.01 1222.07)" stroke="#FFCC9D" stroke-width="3"/>
<line y1="-1.5" x2="1937.62" y2="-1.5" transform="matrix(-0.718108 -0.761921 -0.290573 -0.91274 1816.78 1219.28)" stroke="#FFCC9D" stroke-width="3"/>
<line y1="-1.5" x2="1937.62" y2="-1.5" transform="matrix(-0.718108 -0.761921 -0.290573 -0.91274 1830.56 1216.49)" stroke="#FFCC9D" stroke-width="3"/>
<line y1="-1.5" x2="1937.62" y2="-1.5" transform="matrix(-0.718109 -0.761921 -0.290573 -0.91274 1844.33 1213.7)" stroke="#FFCC9D" stroke-width="3"/>
<line y1="-1.5" x2="1937.62" y2="-1.5" transform="matrix(-0.718108 -0.761921 -0.290573 -0.91274 1858.1 1210.91)" stroke="#FFCC9D" stroke-width="3"/>
<line y1="-1.5" x2="1937.62" y2="-1.5" transform="matrix(-0.718108 -0.761921 -0.290573 -0.91274 1871.88 1208.12)" stroke="#FFCC9D" stroke-width="3"/>
<line y1="-1.5" x2="1937.62" y2="-1.5" transform="matrix(-0.718108 -0.761921 -0.290573 -0.91274 1885.65 1205.33)" stroke="#FFCC9D" stroke-width="3"/>
<line y1="-1.5" x2="1937.62" y2="-1.5" transform="matrix(-0.718108 -0.761921 -0.290573 -0.91274 1899.42 1202.54)" stroke="#FFCC9D" stroke-width="3"/>
<line y1="-1.5" x2="1937.62" y2="-1.5" transform="matrix(-0.718109 -0.761921 -0.290573 -0.91274 1500 1283.45)" stroke="#FFCC9D" stroke-width="3"/>
<line y1="-1.5" x2="1937.62" y2="-1.5" transform="matrix(-0.718108 -0.761921 -0.290573 -0.91274 1926.77 1197)" stroke="#FFCC9D" stroke-width="3"/>
<line y1="-1.5" x2="1937.62" y2="-1.5" transform="matrix(-0.718108 -0.761921 -0.290573 -0.91274 1940.55 1194.21)" stroke="#FFCC9D" stroke-width="3"/>
<line y1="-1.5" x2="1937.62" y2="-1.5" transform="matrix(-0.718109 -0.761921 -0.290573 -0.91274 1954.32 1191.42)" stroke="#FFCC9D" stroke-width="3"/>
<line y1="-1.5" x2="1937.62" y2="-1.5" transform="matrix(-0.718109 -0.761921 -0.290573 -0.91274 1968.09 1188.63)" stroke="#FFCC9D" stroke-width="3"/>
<line y1="-1.5" x2="1937.62" y2="-1.5" transform="matrix(-0.718109 -0.761921 -0.290573 -0.91274 1981.87 1185.84)" stroke="#FFCC9D" stroke-width="3"/>
<line y1="-1.5" x2="1937.62" y2="-1.5" transform="matrix(-0.718108 -0.761921 -0.290573 -0.91274 1995.64 1183.05)" stroke="#FFCC9D" stroke-width="3"/>
<line y1="-1.5" x2="1937.62" y2="-1.5" transform="matrix(-0.718108 -0.761921 -0.290573 -0.91274 2009.41 1180.26)" stroke="#FFCC9D" stroke-width="3"/>
<line y1="-1.5" x2="1937.62" y2="-1.5" transform="matrix(-0.718109 -0.761921 -0.290573 -0.91274 2023.19 1177.47)" stroke="#FFCC9D" stroke-width="3"/>
<line y1="-1.5" x2="1937.62" y2="-1.5" transform="matrix(-0.718108 -0.761921 -0.290573 -0.91274 2036.96 1174.68)" stroke="#FFCC9D" stroke-width="3"/>
<line y1="-1.5" x2="1937.62" y2="-1.5" transform="matrix(-0.718109 -0.761921 -0.290573 -0.91274 2050.73 1171.89)" stroke="#FFCC9D" stroke-width="3"/>
<line y1="-1.5" x2="1937.62" y2="-1.5" transform="matrix(-0.718109 -0.761921 -0.290573 -0.91274 2064.51 1169.1)" stroke="#FFCC9D" stroke-width="3"/>
<line y1="-1.5" x2="1937.62" y2="-1.5" transform="matrix(-0.718108 -0.761921 -0.290573 -0.91274 2078.28 1166.31)" stroke="#FFCC9D" stroke-width="3"/>
<line y1="-1.5" x2="1937.62" y2="-1.5" transform="matrix(-0.718108 -0.761921 -0.290573 -0.91274 2092.05 1163.52)" stroke="#FFCC9D" stroke-width="3"/>
<line y1="-1.5" x2="1937.62" y2="-1.5" transform="matrix(-0.718109 -0.761921 -0.290573 -0.91274 2105.83 1160.73)" stroke="#FFCC9D" stroke-width="3"/>
<line y1="-1.5" x2="1937.62" y2="-1.5" transform="matrix(-0.718109 -0.761921 -0.290573 -0.91274 2119.6 1157.94)" stroke="#FFCC9D" stroke-width="3"/>
<line y1="-1.5" x2="1937.62" y2="-1.5" transform="matrix(-0.718108 -0.761921 -0.290573 -0.91274 2133.37 1155.15)" stroke="#FFCC9D" stroke-width="3"/>
<line y1="-1.5" x2="1937.62" y2="-1.5" transform="matrix(-0.718108 -0.761921 -0.290573 -0.91274 2147.15 1152.36)" stroke="#FFCC9D" stroke-width="3"/>
<line y1="-1.5" x2="1937.62" y2="-1.5" transform="matrix(-0.718108 -0.761921 -0.290573 -0.91274 2160.92 1149.57)" stroke="#FFCC9D" stroke-width="3"/>
<line y1="-1.5" x2="1937.62" y2="-1.5" transform="matrix(-0.718108 -0.761921 -0.290573 -0.91274 2174.69 1146.78)" stroke="#FFCC9D" stroke-width="3"/>
<line y1="-1.5" x2="1937.62" y2="-1.5" transform="matrix(-0.718108 -0.761921 -0.290573 -0.91274 2188.46 1143.99)" stroke="#FFCC9D" stroke-width="3"/>
<line y1="-1.5" x2="1937.62" y2="-1.5" transform="matrix(-0.718108 -0.761921 -0.290573 -0.91274 2202.24 1141.2)" stroke="#FFCC9D" stroke-width="3"/>
<line y1="-1.5" x2="1937.62" y2="-1.5" transform="matrix(-0.718108 -0.761921 -0.290573 -0.91274 2216.01 1138.41)" stroke="#FFCC9D" stroke-width="3"/>
<line y1="-1.5" x2="1937.62" y2="-1.5" transform="matrix(-0.718108 -0.761921 -0.290573 -0.91274 2229.78 1135.62)" stroke="#FFCC9D" stroke-width="3"/>
<line y1="-1.5" x2="1937.62" y2="-1.5" transform="matrix(-0.718108 -0.761921 -0.290573 -0.91274 2243.56 1132.83)" stroke="#FFCC9D" stroke-width="3"/>
<line y1="-1.5" x2="1937.62" y2="-1.5" transform="matrix(-0.718109 -0.761921 -0.290573 -0.91274 2257.33 1130.04)" stroke="#FFCC9D" stroke-width="3"/>
<line y1="-1.5" x2="1937.62" y2="-1.5" transform="matrix(-0.718108 -0.761921 -0.290573 -0.91274 2271.1 1127.25)" stroke="#FFCC9D" stroke-width="3"/>
<line y1="-1.5" x2="1937.62" y2="-1.5" transform="matrix(-0.718108 -0.761921 -0.290573 -0.91274 2284.88 1124.47)" stroke="#FFCC9D" stroke-width="3"/>
<line y1="-1.5" x2="1937.62" y2="-1.5" transform="matrix(-0.718108 -0.761921 -0.290573 -0.91274 2298.65 1121.68)" stroke="#FFCC9D" stroke-width="3"/>
<line y1="-1.5" x2="1937.62" y2="-1.5" transform="matrix(-0.718109 -0.761921 -0.290573 -0.91274 2312.42 1118.89)" stroke="#FFCC9D" stroke-width="3"/>
<line y1="-1.5" x2="1937.62" y2="-1.5" transform="matrix(-0.718108 -0.761921 -0.290573 -0.91274 1913 1199.79)" stroke="#FFCC9D" stroke-width="3"/>
<line y1="-1.5" x2="1937.62" y2="-1.5" transform="matrix(-0.718108 -0.761921 -0.290573 -0.91274 2339.78 1113.34)" stroke="#FFCC9D" stroke-width="3"/>
<line y1="-1.5" x2="1937.62" y2="-1.5" transform="matrix(-0.718108 -0.761921 -0.290573 -0.91274 2353.55 1110.56)" stroke="#FFCC9D" stroke-width="3"/>
<line y1="-1.5" x2="1937.62" y2="-1.5" transform="matrix(-0.718108 -0.761921 -0.290573 -0.91274 2367.32 1107.77)" stroke="#FFCC9D" stroke-width="3"/>
<line y1="-1.5" x2="1937.62" y2="-1.5" transform="matrix(-0.718108 -0.761921 -0.290573 -0.91274 2381.1 1104.98)" stroke="#FFCC9D" stroke-width="3"/>
<line y1="-1.5" x2="1937.62" y2="-1.5" transform="matrix(-0.718109 -0.761921 -0.290573 -0.91274 2394.87 1102.19)" stroke="#FFCC9D" stroke-width="3"/>
<line y1="-1.5" x2="1937.62" y2="-1.5" transform="matrix(-0.718108 -0.761921 -0.290573 -0.91274 2408.64 1099.4)" stroke="#FFCC9D" stroke-width="3"/>
<line y1="-1.5" x2="1937.62" y2="-1.5" transform="matrix(-0.718108 -0.761921 -0.290573 -0.91274 2422.42 1096.61)" stroke="#FFCC9D" stroke-width="3"/>
<line y1="-1.5" x2="1937.62" y2="-1.5" transform="matrix(-0.718108 -0.761921 -0.290573 -0.91274 2436.19 1093.82)" stroke="#FFCC9D" stroke-width="3"/>
<line y1="-1.5" x2="1937.62" y2="-1.5" transform="matrix(-0.718108 -0.761921 -0.290573 -0.91274 2449.96 1091.03)" stroke="#FFCC9D" stroke-width="3"/>
<line y1="-1.5" x2="1937.62" y2="-1.5" transform="matrix(-0.718108 -0.761921 -0.290573 -0.91274 2463.74 1088.24)" stroke="#FFCC9D" stroke-width="3"/>
<line y1="-1.5" x2="1937.62" y2="-1.5" transform="matrix(-0.718108 -0.761921 -0.290573 -0.91274 2477.51 1085.45)" stroke="#FFCC9D" stroke-width="3"/>
<line y1="-1.5" x2="1937.62" y2="-1.5" transform="matrix(-0.718108 -0.761921 -0.290573 -0.91274 2491.28 1082.66)" stroke="#FFCC9D" stroke-width="3"/>
<line y1="-1.5" x2="1937.62" y2="-1.5" transform="matrix(-0.718108 -0.761921 -0.290573 -0.91274 2505.05 1079.87)" stroke="#FFCC9D" stroke-width="3"/>
<line y1="-1.5" x2="1937.62" y2="-1.5" transform="matrix(-0.718109 -0.761921 -0.290573 -0.91274 2518.83 1077.08)" stroke="#FFCC9D" stroke-width="3"/>
<line y1="-1.5" x2="1937.62" y2="-1.5" transform="matrix(-0.718108 -0.761921 -0.290573 -0.91274 2532.6 1074.29)" stroke="#FFCC9D" stroke-width="3"/>
<line y1="-1.5" x2="1937.62" y2="-1.5" transform="matrix(-0.718109 -0.761921 -0.290573 -0.91274 2546.37 1071.5)" stroke="#FFCC9D" stroke-width="3"/>
<line y1="-1.5" x2="1937.62" y2="-1.5" transform="matrix(-0.718108 -0.761921 -0.290573 -0.91274 2560.15 1068.71)" stroke="#FFCC9D" stroke-width="3"/>
<line y1="-1.5" x2="1937.62" y2="-1.5" transform="matrix(-0.718108 -0.761921 -0.290573 -0.91274 2573.92 1065.92)" stroke="#FFCC9D" stroke-width="3"/>
<line y1="-1.5" x2="1937.62" y2="-1.5" transform="matrix(-0.718108 -0.761921 -0.290573 -0.91274 2587.69 1063.13)" stroke="#FFCC9D" stroke-width="3"/>
<line y1="-1.5" x2="1937.62" y2="-1.5" transform="matrix(-0.718108 -0.761921 -0.290573 -0.91274 2601.47 1060.34)" stroke="#FFCC9D" stroke-width="3"/>
<line y1="-1.5" x2="1937.62" y2="-1.5" transform="matrix(-0.718108 -0.761921 -0.290573 -0.91274 2615.24 1057.55)" stroke="#FFCC9D" stroke-width="3"/>
<line y1="-1.5" x2="1937.62" y2="-1.5" transform="matrix(-0.718108 -0.761921 -0.290573 -0.91274 2629.01 1054.76)" stroke="#FFCC9D" stroke-width="3"/>
<line y1="-1.5" x2="1937.62" y2="-1.5" transform="matrix(-0.718108 -0.761921 -0.290573 -0.91274 2642.79 1051.97)" stroke="#FFCC9D" stroke-width="3"/>
<line y1="-1.5" x2="1937.62" y2="-1.5" transform="matrix(-0.718109 -0.761921 -0.290573 -0.91274 2656.56 1049.18)" stroke="#FFCC9D" stroke-width="3"/>
<line y1="-1.5" x2="1937.62" y2="-1.5" transform="matrix(-0.718109 -0.761921 -0.290573 -0.91274 2670.33 1046.39)" stroke="#FFCC9D" stroke-width="3"/>
<line y1="-1.5" x2="1937.62" y2="-1.5" transform="matrix(-0.718109 -0.761921 -0.290573 -0.91274 2684.11 1043.6)" stroke="#FFCC9D" stroke-width="3"/>
<line y1="-1.5" x2="1937.62" y2="-1.5" transform="matrix(-0.718108 -0.761921 -0.290573 -0.91274 2697.88 1040.81)" stroke="#FFCC9D" stroke-width="3"/>
<line y1="-1.5" x2="1937.62" y2="-1.5" transform="matrix(-0.718108 -0.761921 -0.290573 -0.91274 2711.65 1038.02)" stroke="#FFCC9D" stroke-width="3"/>
<line y1="-1.5" x2="1937.62" y2="-1.5" transform="matrix(-0.718906 -0.761401 -0.289686 -0.912849 2725.43 1035.23)" stroke="#FFCC9D" stroke-width="3"/>
<line y1="-1.5" x2="1937.62" y2="-1.5" transform="matrix(-0.718109 -0.761921 -0.290573 -0.91274 2326 1116.13)" stroke="#FFCC9D" stroke-width="3"/>
<line y1="-1.5" x2="1937.62" y2="-1.5" transform="matrix(-0.718109 -0.761921 -0.290573 -0.91274 285.944 1544.38)" stroke="#FFCC9D" stroke-width="3"/>
<line y1="-1.5" x2="1937.62" y2="-1.5" transform="matrix(-0.718109 -0.761921 -0.290573 -0.91274 299.718 1541.59)" stroke="#FFCC9D" stroke-width="3"/>
<line y1="-1.5" x2="1937.62" y2="-1.5" transform="matrix(-0.718109 -0.761921 -0.290573 -0.91274 313.491 1538.8)" stroke="#FFCC9D" stroke-width="3"/>
<line y1="-1.5" x2="1937.62" y2="-1.5" transform="matrix(-0.718108 -0.761921 -0.290573 -0.91274 327.264 1536.01)" stroke="#FFCC9D" stroke-width="3"/>
<line y1="-1.5" x2="1937.62" y2="-1.5" transform="matrix(-0.718109 -0.761921 -0.290573 -0.91274 341.038 1533.22)" stroke="#FFCC9D" stroke-width="3"/>
<line y1="-1.5" x2="1937.62" y2="-1.5" transform="matrix(-0.718109 -0.761921 -0.290573 -0.91274 354.811 1530.43)" stroke="#FFCC9D" stroke-width="3"/>
<line y1="-1.5" x2="1937.62" y2="-1.5" transform="matrix(-0.718108 -0.761921 -0.290573 -0.91274 368.584 1527.64)" stroke="#FFCC9D" stroke-width="3"/>
<line y1="-1.5" x2="1937.62" y2="-1.5" transform="matrix(-0.718109 -0.761921 -0.290573 -0.91274 382.357 1524.85)" stroke="#FFCC9D" stroke-width="3"/>
<line y1="-1.5" x2="1937.62" y2="-1.5" transform="matrix(-0.718108 -0.761921 -0.290573 -0.91274 396.131 1522.06)" stroke="#FFCC9D" stroke-width="3"/>
<line y1="-1.5" x2="1937.62" y2="-1.5" transform="matrix(-0.718109 -0.761921 -0.290573 -0.91274 409.904 1519.27)" stroke="#FFCC9D" stroke-width="3"/>
<line y1="-1.5" x2="1937.62" y2="-1.5" transform="matrix(-0.718109 -0.761921 -0.290573 -0.91274 423.677 1516.48)" stroke="#FFCC9D" stroke-width="3"/>
<line y1="-1.5" x2="1937.62" y2="-1.5" transform="matrix(-0.718108 -0.761921 -0.290573 -0.91274 437.451 1513.69)" stroke="#FFCC9D" stroke-width="3"/>
<line y1="-1.5" x2="1937.62" y2="-1.5" transform="matrix(-0.718108 -0.761921 -0.290573 -0.91274 451.225 1510.9)" stroke="#FFCC9D" stroke-width="3"/>
<line y1="-1.5" x2="1937.62" y2="-1.5" transform="matrix(-0.718109 -0.761921 -0.290573 -0.91274 464.998 1508.11)" stroke="#FFCC9D" stroke-width="3"/>
<line y1="-1.5" x2="1937.62" y2="-1.5" transform="matrix(-0.718108 -0.761921 -0.290573 -0.91274 478.773 1505.32)" stroke="#FFCC9D" stroke-width="3"/>
<line y1="-1.5" x2="1937.62" y2="-1.5" transform="matrix(-0.718109 -0.761921 -0.290573 -0.91274 492.547 1502.53)" stroke="#FFCC9D" stroke-width="3"/>
<line y1="-1.5" x2="1937.62" y2="-1.5" transform="matrix(-0.718108 -0.761921 -0.290573 -0.91274 506.319 1499.74)" stroke="#FFCC9D" stroke-width="3"/>
<line y1="-1.5" x2="1937.62" y2="-1.5" transform="matrix(-0.718109 -0.761921 -0.290573 -0.91274 520.094 1496.95)" stroke="#FFCC9D" stroke-width="3"/>
<line y1="-1.5" x2="1937.62" y2="-1.5" transform="matrix(-0.718109 -0.761921 -0.290573 -0.91274 533.867 1494.16)" stroke="#FFCC9D" stroke-width="3"/>
<line y1="-1.5" x2="1937.62" y2="-1.5" transform="matrix(-0.718109 -0.761921 -0.290573 -0.91274 547.64 1491.37)" stroke="#FFCC9D" stroke-width="3"/>
<line y1="-1.5" x2="1937.62" y2="-1.5" transform="matrix(-0.718108 -0.761921 -0.290573 -0.91274 561.413 1488.58)" stroke="#FFCC9D" stroke-width="3"/>
<line y1="-1.5" x2="1937.62" y2="-1.5" transform="matrix(-0.718109 -0.761921 -0.290573 -0.91274 575.186 1485.79)" stroke="#FFCC9D" stroke-width="3"/>
<line y1="-1.5" x2="1937.62" y2="-1.5" transform="matrix(-0.718108 -0.761921 -0.290573 -0.91274 588.96 1483)" stroke="#FFCC9D" stroke-width="3"/>
<line y1="-1.5" x2="1937.62" y2="-1.5" transform="matrix(-0.718109 -0.761921 -0.290573 -0.91274 602.733 1480.21)" stroke="#FFCC9D" stroke-width="3"/>
<line y1="-1.5" x2="1937.62" y2="-1.5" transform="matrix(-0.718109 -0.761921 -0.290573 -0.91274 616.507 1477.42)" stroke="#FFCC9D" stroke-width="3"/>
<line y1="-1.5" x2="1937.62" y2="-1.5" transform="matrix(-0.718108 -0.761921 -0.290573 -0.91274 630.28 1474.63)" stroke="#FFCC9D" stroke-width="3"/>
<line y1="-1.5" x2="1937.62" y2="-1.5" transform="matrix(-0.718108 -0.761921 -0.290573 -0.91274 644.053 1471.84)" stroke="#FFCC9D" stroke-width="3"/>
<line y1="-1.5" x2="1937.62" y2="-1.5" transform="matrix(-0.718109 -0.761921 -0.290573 -0.91274 657.827 1469.05)" stroke="#FFCC9D" stroke-width="3"/>
<line y1="-1.5" x2="1937.62" y2="-1.5" transform="matrix(-0.718109 -0.761921 -0.290573 -0.91274 671.601 1466.26)" stroke="#FFCC9D" stroke-width="3"/>
<line y1="-1.5" x2="1937.62" y2="-1.5" transform="matrix(-0.718109 -0.761921 -0.290573 -0.91274 272.171 1547.17)" stroke="#FFCC9D" stroke-width="3"/>
<line y1="-1.5" x2="1937.62" y2="-1.5" transform="matrix(-0.718109 -0.761921 -0.290573 -0.91274 698.952 1460.72)" stroke="#FFCC9D" stroke-width="3"/>
<line y1="-1.5" x2="1937.62" y2="-1.5" transform="matrix(-0.718108 -0.761921 -0.290573 -0.91274 712.726 1457.93)" stroke="#FFCC9D" stroke-width="3"/>
<line y1="-1.5" x2="1937.62" y2="-1.5" transform="matrix(-0.718109 -0.761921 -0.290573 -0.91274 726.499 1455.14)" stroke="#FFCC9D" stroke-width="3"/>
<line y1="-1.5" x2="1937.62" y2="-1.5" transform="matrix(-0.718109 -0.761921 -0.290573 -0.91274 740.272 1452.35)" stroke="#FFCC9D" stroke-width="3"/>
<line y1="-1.5" x2="1937.62" y2="-1.5" transform="matrix(-0.718109 -0.761921 -0.290573 -0.91274 754.045 1449.56)" stroke="#FFCC9D" stroke-width="3"/>
<line y1="-1.5" x2="1937.62" y2="-1.5" transform="matrix(-0.718108 -0.761921 -0.290573 -0.91274 767.818 1446.78)" stroke="#FFCC9D" stroke-width="3"/>
<line y1="-1.5" x2="1937.62" y2="-1.5" transform="matrix(-0.718109 -0.761921 -0.290573 -0.91274 781.592 1443.99)" stroke="#FFCC9D" stroke-width="3"/>
<line y1="-1.5" x2="1937.62" y2="-1.5" transform="matrix(-0.718109 -0.761921 -0.290573 -0.91274 795.365 1441.2)" stroke="#FFCC9D" stroke-width="3"/>
<line y1="-1.5" x2="1937.62" y2="-1.5" transform="matrix(-0.718108 -0.761921 -0.290573 -0.91274 809.139 1438.41)" stroke="#FFCC9D" stroke-width="3"/>
<line y1="-1.5" x2="1937.62" y2="-1.5" transform="matrix(-0.718109 -0.761921 -0.290573 -0.91274 822.912 1435.62)" stroke="#FFCC9D" stroke-width="3"/>
<line y1="-1.5" x2="1937.62" y2="-1.5" transform="matrix(-0.718109 -0.761921 -0.290573 -0.91274 836.685 1432.83)" stroke="#FFCC9D" stroke-width="3"/>
<line y1="-1.5" x2="1937.62" y2="-1.5" transform="matrix(-0.718109 -0.761921 -0.290573 -0.91274 850.458 1430.04)" stroke="#FFCC9D" stroke-width="3"/>
<line y1="-1.5" x2="1937.62" y2="-1.5" transform="matrix(-0.718108 -0.761921 -0.290573 -0.91274 864.232 1427.25)" stroke="#FFCC9D" stroke-width="3"/>
<line y1="-1.5" x2="1937.62" y2="-1.5" transform="matrix(-0.718109 -0.761921 -0.290573 -0.91274 878.001 1424.46)" stroke="#FFCC9D" stroke-width="3"/>
<line y1="-1.5" x2="1937.62" y2="-1.5" transform="matrix(-0.718109 -0.761921 -0.290573 -0.91274 891.775 1421.67)" stroke="#FFCC9D" stroke-width="3"/>
<line y1="-1.5" x2="1937.62" y2="-1.5" transform="matrix(-0.718108 -0.761921 -0.290573 -0.91274 905.547 1418.88)" stroke="#FFCC9D" stroke-width="3"/>
<line y1="-1.5" x2="1937.62" y2="-1.5" transform="matrix(-0.718109 -0.761921 -0.290573 -0.91274 919.321 1416.09)" stroke="#FFCC9D" stroke-width="3"/>
<line y1="-1.5" x2="1937.62" y2="-1.5" transform="matrix(-0.718109 -0.761921 -0.290573 -0.91274 933.094 1413.3)" stroke="#FFCC9D" stroke-width="3"/>
<line y1="-1.5" x2="1937.62" y2="-1.5" transform="matrix(-0.718109 -0.761921 -0.290573 -0.91274 946.868 1410.51)" stroke="#FFCC9D" stroke-width="3"/>
<line y1="-1.5" x2="1937.62" y2="-1.5" transform="matrix(-0.718108 -0.761921 -0.290573 -0.91274 960.642 1407.72)" stroke="#FFCC9D" stroke-width="3"/>
<line y1="-1.5" x2="1937.62" y2="-1.5" transform="matrix(-0.718109 -0.761921 -0.290573 -0.91274 974.415 1404.93)" stroke="#FFCC9D" stroke-width="3"/>
<line y1="-1.5" x2="1937.62" y2="-1.5" transform="matrix(-0.718109 -0.761921 -0.290573 -0.91274 988.188 1402.14)" stroke="#FFCC9D" stroke-width="3"/>
<line y1="-1.5" x2="1937.62" y2="-1.5" transform="matrix(-0.718109 -0.761921 -0.290573 -0.91274 1001.96 1399.35)" stroke="#FFCC9D" stroke-width="3"/>
<line y1="-1.5" x2="1937.62" y2="-1.5" transform="matrix(-0.718109 -0.761921 -0.290573 -0.91274 1015.73 1396.56)" stroke="#FFCC9D" stroke-width="3"/>
<line y1="-1.5" x2="1937.62" y2="-1.5" transform="matrix(-0.718108 -0.761921 -0.290573 -0.91274 1029.51 1393.77)" stroke="#FFCC9D" stroke-width="3"/>
<line y1="-1.5" x2="1937.62" y2="-1.5" transform="matrix(-0.718109 -0.761921 -0.290573 -0.91274 1043.28 1390.98)" stroke="#FFCC9D" stroke-width="3"/>
<line y1="-1.5" x2="1937.62" y2="-1.5" transform="matrix(-0.718109 -0.761921 -0.290573 -0.91274 1057.05 1388.19)" stroke="#FFCC9D" stroke-width="3"/>
<line y1="-1.5" x2="1937.62" y2="-1.5" transform="matrix(-0.718108 -0.761921 -0.290573 -0.91274 1070.83 1385.4)" stroke="#FFCC9D" stroke-width="3"/>
<line y1="-1.5" x2="1937.62" y2="-1.5" transform="matrix(-0.718109 -0.761921 -0.290573 -0.91274 1084.6 1382.61)" stroke="#FFCC9D" stroke-width="3"/>
<line y1="-1.5" x2="1937.62" y2="-1.5" transform="matrix(-0.718109 -0.761921 -0.290573 -0.91274 685.178 1463.51)" stroke="#FFCC9D" stroke-width="3"/>
<line y1="-1.5" x2="1937.62" y2="-1.5" transform="matrix(-0.718109 -0.761921 -0.290573 -0.91274 1111.95 1377.07)" stroke="#FFCC9D" stroke-width="3"/>
<line y1="-1.5" x2="1937.62" y2="-1.5" transform="matrix(-0.718108 -0.761921 -0.290573 -0.91274 1125.73 1374.28)" stroke="#FFCC9D" stroke-width="3"/>
<line y1="-1.5" x2="1937.62" y2="-1.5" transform="matrix(-0.718109 -0.761921 -0.290573 -0.91274 1139.5 1371.49)" stroke="#FFCC9D" stroke-width="3"/>
<line y1="-1.5" x2="1937.62" y2="-1.5" transform="matrix(-0.718109 -0.761921 -0.290573 -0.91274 1153.27 1368.7)" stroke="#FFCC9D" stroke-width="3"/>
<line y1="-1.5" x2="1937.62" y2="-1.5" transform="matrix(-0.718108 -0.761921 -0.290573 -0.91274 1167.05 1365.91)" stroke="#FFCC9D" stroke-width="3"/>
<line y1="-1.5" x2="1937.62" y2="-1.5" transform="matrix(-0.718108 -0.761921 -0.290573 -0.91274 1180.82 1363.12)" stroke="#FFCC9D" stroke-width="3"/>
<line y1="-1.5" x2="1937.62" y2="-1.5" transform="matrix(-0.718109 -0.761921 -0.290573 -0.91274 1194.59 1360.33)" stroke="#FFCC9D" stroke-width="3"/>
<line y1="-1.5" x2="1937.62" y2="-1.5" transform="matrix(-0.718108 -0.761921 -0.290573 -0.91274 1208.37 1357.54)" stroke="#FFCC9D" stroke-width="3"/>
<line y1="-1.5" x2="1937.62" y2="-1.5" transform="matrix(-0.718109 -0.761921 -0.290573 -0.91274 1222.14 1354.75)" stroke="#FFCC9D" stroke-width="3"/>
<line y1="-1.5" x2="1937.62" y2="-1.5" transform="matrix(-0.718109 -0.761921 -0.290573 -0.91274 1235.91 1351.96)" stroke="#FFCC9D" stroke-width="3"/>
<line y1="-1.5" x2="1937.62" y2="-1.5" transform="matrix(-0.718108 -0.761921 -0.290573 -0.91274 1249.69 1349.17)" stroke="#FFCC9D" stroke-width="3"/>
<line y1="-1.5" x2="1937.62" y2="-1.5" transform="matrix(-0.718109 -0.761921 -0.290573 -0.91274 1263.46 1346.38)" stroke="#FFCC9D" stroke-width="3"/>
<line y1="-1.5" x2="1937.62" y2="-1.5" transform="matrix(-0.718109 -0.761921 -0.290573 -0.91274 1277.23 1343.59)" stroke="#FFCC9D" stroke-width="3"/>
<line y1="-1.5" x2="1937.62" y2="-1.5" transform="matrix(-0.718109 -0.761921 -0.290573 -0.91274 1291.01 1340.8)" stroke="#FFCC9D" stroke-width="3"/>
<line y1="-1.5" x2="1937.62" y2="-1.5" transform="matrix(-0.718108 -0.761921 -0.290573 -0.91274 1304.78 1338.01)" stroke="#FFCC9D" stroke-width="3"/>
<line y1="-1.5" x2="1937.62" y2="-1.5" transform="matrix(-0.718108 -0.761921 -0.290573 -0.91274 1318.55 1335.22)" stroke="#FFCC9D" stroke-width="3"/>
<line y1="-1.5" x2="1937.62" y2="-1.5" transform="matrix(-0.718109 -0.761921 -0.290573 -0.91274 1332.33 1332.43)" stroke="#FFCC9D" stroke-width="3"/>
<line y1="-1.5" x2="1937.62" y2="-1.5" transform="matrix(-0.718109 -0.761921 -0.290573 -0.91274 1346.1 1329.64)" stroke="#FFCC9D" stroke-width="3"/>
<line y1="-1.5" x2="1937.62" y2="-1.5" transform="matrix(-0.718109 -0.761921 -0.290573 -0.91274 1359.87 1326.85)" stroke="#FFCC9D" stroke-width="3"/>
<line y1="-1.5" x2="1937.62" y2="-1.5" transform="matrix(-0.718109 -0.761921 -0.290573 -0.91274 1373.65 1324.06)" stroke="#FFCC9D" stroke-width="3"/>
<line y1="-1.5" x2="1937.62" y2="-1.5" transform="matrix(-0.718109 -0.761921 -0.290573 -0.91274 1387.42 1321.27)" stroke="#FFCC9D" stroke-width="3"/>
<line y1="-1.5" x2="1937.62" y2="-1.5" transform="matrix(-0.718109 -0.761921 -0.290573 -0.91274 1401.19 1318.48)" stroke="#FFCC9D" stroke-width="3"/>
<line y1="-1.5" x2="1937.62" y2="-1.5" transform="matrix(-0.718109 -0.761921 -0.290573 -0.91274 1414.97 1315.69)" stroke="#FFCC9D" stroke-width="3"/>
<line y1="-1.5" x2="1937.62" y2="-1.5" transform="matrix(-0.718109 -0.761921 -0.290573 -0.91274 1428.74 1312.9)" stroke="#FFCC9D" stroke-width="3"/>
<line y1="-1.5" x2="1937.62" y2="-1.5" transform="matrix(-0.718109 -0.761921 -0.290573 -0.91274 1442.51 1310.11)" stroke="#FFCC9D" stroke-width="3"/>
<line y1="-1.5" x2="1937.62" y2="-1.5" transform="matrix(-0.718108 -0.761921 -0.290573 -0.91274 1456.29 1307.32)" stroke="#FFCC9D" stroke-width="3"/>
<line y1="-1.5" x2="1937.62" y2="-1.5" transform="matrix(-0.718109 -0.761921 -0.290573 -0.91274 1470.06 1304.53)" stroke="#FFCC9D" stroke-width="3"/>
<line y1="-1.5" x2="1937.62" y2="-1.5" transform="matrix(-0.718109 -0.761921 -0.290573 -0.91274 1483.83 1301.74)" stroke="#FFCC9D" stroke-width="3"/>
<line y1="-1.5" x2="1937.62" y2="-1.5" transform="matrix(-0.718109 -0.761921 -0.290573 -0.91274 1497.61 1298.95)" stroke="#FFCC9D" stroke-width="3"/>
<line y1="-1.5" x2="1937.62" y2="-1.5" transform="matrix(-0.718108 -0.761921 -0.290573 -0.91274 1098.18 1379.86)" stroke="#FFCC9D" stroke-width="3"/>
</g>
</svg>
