<?xml version="1.0" encoding="UTF-8" standalone="no"?>
<!DOCTYPE svg PUBLIC "-//W3C//DTD SVG 1.1//EN" "http://www.w3.org/Graphics/SVG/1.1/DTD/svg11.dtd">
<svg width="100%" height="100%" viewBox="0 0 489 488" version="1.1" xmlns="http://www.w3.org/2000/svg" xmlns:xlink="http://www.w3.org/1999/xlink" xml:space="preserve" xmlns:serif="http://www.serif.com/" style="fill-rule:evenodd;clip-rule:evenodd;stroke-linejoin:round;stroke-miterlimit:2;">
    <g transform="matrix(1,0,0,1,-828,-993)">
        <g id="Layer-1" serif:id="Layer 1" transform="matrix(4.16667,0,0,4.16667,94.2733,186.463)">
            <g transform="matrix(0,-0.515778,-0.515778,0,234.653,193.472)">
                <path d="M-113.615,-113.617C-176.363,-113.617 -227.231,-62.748 -227.231,-0.001C-227.231,62.748 -176.363,113.615 -113.615,113.615C-50.868,113.615 -0.001,62.748 -0.001,-0.001C-0.001,-62.748 -50.868,-113.617 -113.615,-113.617" style="fill:rgb(247,177,24);fill-rule:nonzero;"/>
            </g>
            <g transform="matrix(0.515778,0,0,0.515778,293.254,266.222)">
                <path d="M0,-27.434C0,-31.267 -0.195,-35.056 -0.568,-38.792L-111.318,-102.732C-112.74,-103.553 -114.488,-103.553 -115.91,-102.732L-157.089,-78.959C-157.135,-78.934 -157.168,-78.899 -157.212,-78.872C-157.353,-78.784 -157.483,-78.685 -157.613,-78.582C-157.725,-78.496 -157.837,-78.411 -157.939,-78.314C-158.047,-78.212 -158.142,-78.1 -158.241,-77.988C-158.339,-77.874 -158.438,-77.765 -158.524,-77.644C-158.61,-77.524 -158.68,-77.396 -158.754,-77.269C-158.826,-77.142 -158.902,-77.019 -158.962,-76.886C-159.023,-76.749 -159.07,-76.606 -159.121,-76.462C-159.167,-76.324 -159.216,-76.187 -159.249,-76.044C-159.283,-75.907 -159.301,-75.764 -159.321,-75.622C-159.344,-75.46 -159.364,-75.3 -159.369,-75.136C-159.372,-75.085 -159.385,-75.038 -159.385,-74.985L-159.385,-51.207C-159.385,-49.57 -158.509,-48.052 -157.089,-47.234L-143.386,-39.322L-157.089,-31.408C-158.509,-30.587 -159.385,-29.072 -159.385,-27.434L-159.385,20.116C-159.385,21.754 -158.509,23.271 -157.089,24.091L-66.885,76.119C-27.455,58.296 0,18.65 0,-27.434" style="fill:rgb(240,158,31);fill-rule:nonzero;"/>
            </g>
            <g transform="matrix(0.515778,0,0,0.515778,242.905,259.23)">
                <path d="M0,19.134L-15.998,28.37L-32,19.134L-32,0.66L-15.998,-8.578L0,0.66L0,19.134ZM-38.884,-5.966C-38.892,-5.962 -38.898,-5.955 -38.906,-5.95C-38.939,-5.927 -38.971,-5.901 -39.007,-5.879C-39.147,-5.791 -39.278,-5.691 -39.407,-5.591C-39.52,-5.502 -39.632,-5.417 -39.732,-5.322C-39.842,-5.218 -39.938,-5.107 -40.035,-4.994C-40.134,-4.882 -40.232,-4.773 -40.319,-4.65C-40.404,-4.53 -40.474,-4.404 -40.548,-4.274C-40.622,-4.148 -40.696,-4.025 -40.758,-3.892C-40.819,-3.756 -40.865,-3.612 -40.916,-3.47C-40.963,-3.331 -41.011,-3.194 -41.044,-3.052C-41.078,-2.915 -41.096,-2.771 -41.116,-2.63C-41.139,-2.467 -41.159,-2.307 -41.163,-2.145C-41.167,-2.092 -41.18,-2.044 -41.18,-1.99L-41.18,21.786C-41.18,21.836 -41.167,21.885 -41.163,21.938C-41.159,22.102 -41.139,22.261 -41.116,22.423C-41.096,22.566 -41.078,22.707 -41.044,22.846C-41.011,22.988 -40.963,23.124 -40.916,23.263C-40.865,23.406 -40.819,23.55 -40.758,23.686C-40.696,23.818 -40.622,23.943 -40.548,24.069C-40.474,24.196 -40.404,24.324 -40.319,24.445C-40.232,24.566 -40.134,24.676 -40.035,24.788C-39.938,24.9 -39.842,25.012 -39.732,25.114C-39.632,25.211 -39.52,25.296 -39.407,25.383C-39.278,25.486 -39.147,25.585 -39.007,25.673C-38.963,25.698 -38.928,25.733 -38.884,25.76L-18.294,37.647C-17.584,38.057 -16.791,38.262 -15.998,38.262C-15.207,38.262 -14.414,38.057 -13.703,37.647L6.885,25.76C6.932,25.733 6.963,25.698 7.008,25.673C7.148,25.585 7.279,25.486 7.408,25.383C7.521,25.296 7.633,25.211 7.734,25.114C7.842,25.012 7.937,24.9 8.037,24.788C8.135,24.676 8.234,24.566 8.32,24.445C8.406,24.324 8.475,24.196 8.549,24.069C8.621,23.943 8.697,23.818 8.758,23.686C8.818,23.55 8.867,23.406 8.916,23.263C8.963,23.124 9.012,22.988 9.045,22.846C9.08,22.707 9.096,22.566 9.117,22.423C9.139,22.261 9.16,22.102 9.164,21.938C9.168,21.885 9.18,21.836 9.18,21.786L9.18,-1.99C9.18,-3.631 8.305,-5.148 6.885,-5.966L-15.912,-19.128L-38.884,-5.966Z" style="fill:white;fill-rule:nonzero;"/>
            </g>
            <g transform="matrix(0.515778,0,0,0.515778,228.814,258.07)">
                <path d="M0,-23.464L-25.268,-38.052L-25.268,-56.529L11.323,-77.652L43.32,-59.18L31.91,-52.591L13.617,-63.152C12.195,-63.973 10.447,-63.973 9.026,-63.152L-11.563,-51.265C-12.985,-50.446 -13.859,-48.93 -13.859,-47.29C-13.859,-45.651 -12.985,-44.135 -11.563,-43.315L47.91,-8.977L47.91,33.27L11.323,54.393L-25.268,33.27L-25.268,-3.7L-25.268,-8.977L0,-23.464ZM54.795,-15.603L-0.089,-47.29L11.322,-53.876L29.615,-43.315C31.035,-42.494 32.787,-42.494 34.205,-43.315L54.795,-55.204C56.215,-56.026 57.092,-57.54 57.092,-59.18C57.092,-60.819 56.215,-62.335 54.795,-63.154L13.619,-86.927C12.197,-87.748 10.449,-87.748 9.027,-86.927L-32.151,-63.154C-32.197,-63.129 -32.23,-63.094 -32.274,-63.068C-32.415,-62.979 -32.546,-62.88 -32.676,-62.777C-32.787,-62.691 -32.899,-62.606 -33.002,-62.509C-33.109,-62.407 -33.204,-62.295 -33.304,-62.183C-33.401,-62.069 -33.501,-61.96 -33.587,-61.839C-33.673,-61.719 -33.742,-61.591 -33.816,-61.464C-33.889,-61.337 -33.965,-61.214 -34.024,-61.081C-34.086,-60.944 -34.133,-60.801 -34.184,-60.657C-34.229,-60.519 -34.278,-60.382 -34.312,-60.239C-34.346,-60.102 -34.363,-59.959 -34.384,-59.818C-34.406,-59.655 -34.427,-59.495 -34.432,-59.331C-34.435,-59.28 -34.447,-59.233 -34.447,-59.18L-34.447,-35.402C-34.447,-33.765 -33.571,-32.247 -32.151,-31.429L-18.448,-23.517L-32.151,-15.603C-33.571,-14.782 -34.447,-13.267 -34.447,-11.629L-34.447,35.921C-34.447,37.559 -33.571,39.076 -32.151,39.896L9.027,63.669C9.74,64.079 10.531,64.284 11.323,64.284C12.115,64.284 12.908,64.079 13.619,63.669L54.795,39.896C56.215,39.076 57.092,37.559 57.092,35.921L57.092,-11.629C57.092,-13.267 56.215,-14.784 54.795,-15.603" style="fill:white;fill-rule:nonzero;"/>
            </g>
        </g>
    </g>
</svg>
