<?xml version="1.0" encoding="UTF-8" standalone="no"?>
<!DOCTYPE svg PUBLIC "-//W3C//DTD SVG 1.1//EN" "http://www.w3.org/Graphics/SVG/1.1/DTD/svg11.dtd">
<svg width="100%" height="100%" viewBox="0 0 39664 12500" version="1.1" xmlns="http://www.w3.org/2000/svg" xmlns:xlink="http://www.w3.org/1999/xlink" xml:space="preserve" xmlns:serif="http://www.serif.com/" style="fill-rule:evenodd;clip-rule:evenodd;stroke-linejoin:round;stroke-miterlimit:2;">
    <g id="Artboard1" transform="matrix(0.939467,0,0,1,6029.17,0)">
        <rect x="-6417.65" y="0" width="42219.5" height="12500" style="fill:none;"/>
        <g transform="matrix(4.43514,0,0,4.16667,1386.69,0)">
            <g transform="matrix(1,0,0,1,-786.652,-1099.71)">
                <path d="M826.176,2583.62C820.465,2583.62 808.161,2578.99 798.696,2573.28C789.231,2567.57 786.188,2562.94 791.898,2562.94L2401.07,2562.94C2406.78,2562.94 2419.09,2567.57 2428.55,2573.28C2438.02,2578.99 2441.06,2583.62 2435.35,2583.62L826.176,2583.62ZM667.315,2682.81C661.603,2682.81 649.3,2678.18 639.833,2672.47C630.369,2666.76 627.326,2662.13 633.039,2662.13L2187.58,2662.13C2193.29,2662.13 2205.6,2666.76 2215.06,2672.47C2224.53,2678.18 2227.57,2682.81 2221.86,2682.81L667.315,2682.81ZM755.797,2633.22C750.083,2633.22 737.779,2628.59 728.314,2622.88C718.85,2617.16 715.808,2612.53 721.519,2612.53L2319.5,2612.53C2325.22,2612.53 2337.52,2617.16 2346.99,2622.88C2356.45,2628.59 2359.49,2633.22 2353.78,2633.22L755.797,2633.22Z" style="fill:rgb(78,164,219);fill-rule:nonzero;"/>
            </g>
            <rect x="2365.24" y="865.25" width="1269.51" height="1269.5" style="fill:rgb(252,226,93);"/>
            <path d="M2767.66,632.917L3867.08,1267.67L3232.33,2367.09L2132.91,1732.34L2767.66,632.917ZM2782.06,686.649L2186.64,1717.94L3217.93,2313.35L3813.35,1282.06L2782.06,686.649Z" style="fill:rgb(241,97,111);"/>
            <g transform="matrix(1,0,0,1,1665.61,-51.937)">
                <path d="M5377.59,103.874L5892.02,103.874L5892.02,630.627C5616.94,602.606 5399.23,380.794 5377.59,103.874Z" style="fill:rgb(252,226,93);"/>
            </g>
            <g transform="matrix(1,0,0,1,-1828.63,123.31)">
                <path d="M970.75,1903.39L270.333,1903.39L270.333,2603.81L970.75,1903.39ZM848.019,2125.19L466.449,2125.19L466.449,2506.75L848.019,2125.19Z" style="fill:rgb(241,97,111);"/>
            </g>
            <g transform="matrix(1,0,0,1,1665.61,-51.937)">
                <path d="M5960.84,1161.45C5960.84,1171.95 5952.33,1180.45 5941.85,1180.45C5931.36,1180.45 5922.85,1171.95 5922.85,1161.45C5922.85,1150.96 5931.36,1142.46 5941.85,1142.46C5952.33,1142.46 5960.84,1150.96 5960.84,1161.45Z" style="fill:rgb(69,68,104);"/>
            </g>
            <g transform="matrix(1,0,0,1,1665.61,-51.937)">
                <path d="M5960.84,1237.43C5960.84,1247.92 5952.33,1256.43 5941.85,1256.43C5931.36,1256.43 5922.85,1247.92 5922.85,1237.43C5922.85,1226.94 5931.36,1218.44 5941.85,1218.44C5952.33,1218.44 5960.84,1226.94 5960.84,1237.43Z" style="fill:rgb(69,68,104);"/>
            </g>
            <g transform="matrix(1,0,0,1,1665.61,-51.937)">
                <path d="M5960.84,1313.41C5960.84,1323.91 5952.33,1332.41 5941.85,1332.41C5931.36,1332.41 5922.85,1323.91 5922.85,1313.41C5922.85,1302.92 5931.36,1294.42 5941.85,1294.42C5952.33,1294.42 5960.84,1302.92 5960.84,1313.41Z" style="fill:rgb(69,68,104);"/>
            </g>
            <g transform="matrix(1,0,0,1,1665.61,-51.937)">
                <path d="M5960.84,1389.39C5960.84,1399.88 5952.33,1408.39 5941.85,1408.39C5931.36,1408.39 5922.85,1399.88 5922.85,1389.39C5922.85,1378.9 5931.36,1370.4 5941.85,1370.4C5952.33,1370.4 5960.84,1378.9 5960.84,1389.39Z" style="fill:rgb(69,68,104);"/>
            </g>
            <g transform="matrix(1,0,0,1,1665.61,-51.937)">
                <path d="M5960.84,1465.37C5960.84,1475.86 5952.33,1484.37 5941.85,1484.37C5931.36,1484.37 5922.85,1475.86 5922.85,1465.37C5922.85,1454.88 5931.36,1446.38 5941.85,1446.38C5952.33,1446.38 5960.84,1454.88 5960.84,1465.37Z" style="fill:rgb(69,68,104);"/>
            </g>
            <g transform="matrix(1,0,0,1,1665.61,-51.937)">
                <path d="M5960.84,1541.35C5960.84,1551.84 5952.33,1560.35 5941.85,1560.35C5931.36,1560.35 5922.85,1551.84 5922.85,1541.35C5922.85,1530.86 5931.36,1522.35 5941.85,1522.35C5952.33,1522.35 5960.84,1530.86 5960.84,1541.35Z" style="fill:rgb(69,68,104);"/>
            </g>
            <g transform="matrix(1,0,0,1,1665.61,-51.937)">
                <path d="M5960.84,1617.33C5960.84,1627.82 5952.33,1636.33 5941.85,1636.33C5931.36,1636.33 5922.85,1627.82 5922.85,1617.33C5922.85,1606.84 5931.36,1598.34 5941.85,1598.34C5952.33,1598.34 5960.84,1606.84 5960.84,1617.33Z" style="fill:rgb(69,68,104);"/>
            </g>
            <g transform="matrix(1,0,0,1,1665.61,-51.937)">
                <path d="M5884.86,1161.45C5884.86,1171.95 5876.36,1180.45 5865.86,1180.45C5855.38,1180.45 5846.87,1171.95 5846.87,1161.45C5846.87,1150.96 5855.38,1142.46 5865.86,1142.46C5876.36,1142.46 5884.86,1150.96 5884.86,1161.45Z" style="fill:rgb(69,68,104);"/>
            </g>
            <g transform="matrix(1,0,0,1,1665.61,-51.937)">
                <path d="M5884.86,1237.43C5884.86,1247.92 5876.36,1256.43 5865.86,1256.43C5855.38,1256.43 5846.87,1247.92 5846.87,1237.43C5846.87,1226.94 5855.38,1218.44 5865.86,1218.44C5876.36,1218.44 5884.86,1226.94 5884.86,1237.43Z" style="fill:rgb(69,68,104);"/>
            </g>
            <g transform="matrix(1,0,0,1,1665.61,-51.937)">
                <path d="M5884.86,1313.41C5884.86,1323.91 5876.36,1332.41 5865.86,1332.41C5855.38,1332.41 5846.87,1323.91 5846.87,1313.41C5846.87,1302.92 5855.38,1294.42 5865.86,1294.42C5876.36,1294.42 5884.86,1302.92 5884.86,1313.41Z" style="fill:rgb(69,68,104);"/>
            </g>
            <g transform="matrix(1,0,0,1,1665.61,-51.937)">
                <path d="M5884.86,1389.39C5884.86,1399.88 5876.36,1408.39 5865.86,1408.39C5855.38,1408.39 5846.87,1399.88 5846.87,1389.39C5846.87,1378.9 5855.38,1370.4 5865.86,1370.4C5876.36,1370.4 5884.86,1378.9 5884.86,1389.39Z" style="fill:rgb(69,68,104);"/>
            </g>
            <g transform="matrix(1,0,0,1,1665.61,-51.937)">
                <path d="M5884.86,1465.37C5884.86,1475.86 5876.36,1484.37 5865.86,1484.37C5855.38,1484.37 5846.87,1475.86 5846.87,1465.37C5846.87,1454.88 5855.38,1446.38 5865.86,1446.38C5876.36,1446.38 5884.86,1454.88 5884.86,1465.37Z" style="fill:rgb(69,68,104);"/>
            </g>
            <g transform="matrix(1,0,0,1,1665.61,-51.937)">
                <path d="M5884.86,1541.35C5884.86,1551.84 5876.36,1560.35 5865.86,1560.35C5855.38,1560.35 5846.87,1551.84 5846.87,1541.35C5846.87,1530.86 5855.38,1522.35 5865.86,1522.35C5876.36,1522.35 5884.86,1530.86 5884.86,1541.35Z" style="fill:rgb(69,68,104);"/>
            </g>
            <g transform="matrix(1,0,0,1,1665.61,-51.937)">
                <path d="M5884.86,1617.33C5884.86,1627.82 5876.36,1636.33 5865.86,1636.33C5855.38,1636.33 5846.87,1627.82 5846.87,1617.33C5846.87,1606.84 5855.38,1598.34 5865.86,1598.34C5876.36,1598.34 5884.86,1606.84 5884.86,1617.33Z" style="fill:rgb(69,68,104);"/>
            </g>
            <g transform="matrix(1,0,0,1,1665.61,-51.937)">
                <path d="M5884.86,1085.48C5884.86,1095.97 5876.36,1104.47 5865.86,1104.47C5855.38,1104.47 5846.87,1095.97 5846.87,1085.48C5846.87,1074.99 5855.38,1066.48 5865.86,1066.48C5876.36,1066.48 5884.86,1074.99 5884.86,1085.48Z" style="fill:rgb(69,68,104);"/>
            </g>
            <g transform="matrix(1,0,0,1,1665.61,-51.937)">
                <path d="M5808.88,1161.45C5808.88,1171.95 5800.38,1180.45 5789.88,1180.45C5779.39,1180.45 5770.89,1171.95 5770.89,1161.45C5770.89,1150.96 5779.39,1142.46 5789.88,1142.46C5800.38,1142.46 5808.88,1150.96 5808.88,1161.45Z" style="fill:rgb(69,68,104);"/>
            </g>
            <g transform="matrix(1,0,0,1,1665.61,-51.937)">
                <path d="M5808.88,1237.43C5808.88,1247.92 5800.38,1256.43 5789.88,1256.43C5779.39,1256.43 5770.89,1247.92 5770.89,1237.43C5770.89,1226.94 5779.39,1218.44 5789.88,1218.44C5800.38,1218.44 5808.88,1226.94 5808.88,1237.43Z" style="fill:rgb(69,68,104);"/>
            </g>
            <g transform="matrix(1,0,0,1,1665.61,-51.937)">
                <path d="M5808.88,1313.41C5808.88,1323.91 5800.38,1332.41 5789.88,1332.41C5779.39,1332.41 5770.89,1323.91 5770.89,1313.41C5770.89,1302.92 5779.39,1294.42 5789.88,1294.42C5800.38,1294.42 5808.88,1302.92 5808.88,1313.41Z" style="fill:rgb(69,68,104);"/>
            </g>
            <g transform="matrix(1,0,0,1,1665.61,-51.937)">
                <path d="M5808.88,1389.39C5808.88,1399.88 5800.38,1408.39 5789.88,1408.39C5779.39,1408.39 5770.89,1399.88 5770.89,1389.39C5770.89,1378.9 5779.39,1370.4 5789.88,1370.4C5800.38,1370.4 5808.88,1378.9 5808.88,1389.39Z" style="fill:rgb(69,68,104);"/>
            </g>
            <g transform="matrix(1,0,0,1,1665.61,-51.937)">
                <path d="M5808.88,1465.37C5808.88,1475.86 5800.38,1484.37 5789.88,1484.37C5779.39,1484.37 5770.89,1475.86 5770.89,1465.37C5770.89,1454.88 5779.39,1446.38 5789.88,1446.38C5800.38,1446.38 5808.88,1454.88 5808.88,1465.37Z" style="fill:rgb(69,68,104);"/>
            </g>
            <g transform="matrix(1,0,0,1,1665.61,-51.937)">
                <path d="M5808.88,1541.35C5808.88,1551.84 5800.38,1560.35 5789.88,1560.35C5779.39,1560.35 5770.89,1551.84 5770.89,1541.35C5770.89,1530.86 5779.39,1522.35 5789.88,1522.35C5800.38,1522.35 5808.88,1530.86 5808.88,1541.35Z" style="fill:rgb(69,68,104);"/>
            </g>
            <g transform="matrix(1,0,0,1,1665.61,-51.937)">
                <path d="M5808.88,1617.33C5808.88,1627.82 5800.38,1636.33 5789.88,1636.33C5779.39,1636.33 5770.89,1627.82 5770.89,1617.33C5770.89,1606.84 5779.39,1598.34 5789.88,1598.34C5800.38,1598.34 5808.88,1606.84 5808.88,1617.33Z" style="fill:rgb(69,68,104);"/>
            </g>
            <g transform="matrix(1,0,0,1,1665.61,-51.937)">
                <path d="M5808.88,1085.48C5808.88,1095.97 5800.38,1104.47 5789.88,1104.47C5779.39,1104.47 5770.89,1095.97 5770.89,1085.48C5770.89,1074.99 5779.39,1066.48 5789.88,1066.48C5800.38,1066.48 5808.88,1074.99 5808.88,1085.48Z" style="fill:rgb(69,68,104);"/>
            </g>
            <g transform="matrix(1,0,0,1,1665.61,-51.937)">
                <path d="M5960.84,1768.76C5960.84,1779.25 5952.33,1787.76 5941.85,1787.76C5931.36,1787.76 5922.85,1779.25 5922.85,1768.76C5922.85,1758.27 5931.36,1749.77 5941.85,1749.77C5952.33,1749.77 5960.84,1758.27 5960.84,1768.76Z" style="fill:rgb(69,68,104);"/>
            </g>
            <g transform="matrix(1,0,0,1,1665.61,-51.937)">
                <path d="M5960.84,1844.74C5960.84,1855.23 5952.33,1863.73 5941.85,1863.73C5931.36,1863.73 5922.85,1855.23 5922.85,1844.74C5922.85,1834.25 5931.36,1825.74 5941.85,1825.74C5952.33,1825.74 5960.84,1834.25 5960.84,1844.74Z" style="fill:rgb(69,68,104);"/>
            </g>
            <g transform="matrix(1,0,0,1,1665.61,-51.937)">
                <path d="M5960.84,1920.72C5960.84,1931.21 5952.33,1939.71 5941.85,1939.71C5931.36,1939.71 5922.85,1931.21 5922.85,1920.72C5922.85,1910.23 5931.36,1901.73 5941.85,1901.73C5952.33,1901.73 5960.84,1910.23 5960.84,1920.72Z" style="fill:rgb(69,68,104);"/>
            </g>
            <g transform="matrix(1,0,0,1,1665.61,-51.937)">
                <path d="M5960.84,1996.7C5960.84,2007.19 5952.33,2015.69 5941.85,2015.69C5931.36,2015.69 5922.85,2007.19 5922.85,1996.7C5922.85,1986.21 5931.36,1977.7 5941.85,1977.7C5952.33,1977.7 5960.84,1986.21 5960.84,1996.7Z" style="fill:rgb(69,68,104);"/>
            </g>
            <g transform="matrix(1,0,0,1,1665.61,-51.937)">
                <path d="M5960.84,2072.68C5960.84,2083.17 5952.33,2091.67 5941.85,2091.67C5931.36,2091.67 5922.85,2083.17 5922.85,2072.68C5922.85,2062.19 5931.36,2053.68 5941.85,2053.68C5952.33,2053.68 5960.84,2062.19 5960.84,2072.68Z" style="fill:rgb(69,68,104);"/>
            </g>
            <g transform="matrix(1,0,0,1,1665.61,-51.937)">
                <path d="M5960.84,2148.66C5960.84,2159.15 5952.33,2167.65 5941.85,2167.65C5931.36,2167.65 5922.85,2159.15 5922.85,2148.66C5922.85,2138.17 5931.36,2129.66 5941.85,2129.66C5952.33,2129.66 5960.84,2138.17 5960.84,2148.66Z" style="fill:rgb(69,68,104);"/>
            </g>
            <g transform="matrix(1,0,0,1,1665.61,-51.937)">
                <path d="M5960.84,2224.64C5960.84,2235.13 5952.33,2243.63 5941.85,2243.63C5931.36,2243.63 5922.85,2235.13 5922.85,2224.64C5922.85,2214.15 5931.36,2205.64 5941.85,2205.64C5952.33,2205.64 5960.84,2214.15 5960.84,2224.64Z" style="fill:rgb(69,68,104);"/>
            </g>
            <g transform="matrix(1,0,0,1,1665.61,-51.937)">
                <path d="M5960.84,1692.78C5960.84,1703.27 5952.33,1711.78 5941.85,1711.78C5931.36,1711.78 5922.85,1703.27 5922.85,1692.78C5922.85,1682.29 5931.36,1673.79 5941.85,1673.79C5952.33,1673.79 5960.84,1682.29 5960.84,1692.78Z" style="fill:rgb(69,68,104);"/>
            </g>
            <g transform="matrix(1,0,0,1,1665.61,-51.937)">
                <path d="M5884.86,1768.76C5884.86,1779.25 5876.36,1787.76 5865.86,1787.76C5855.38,1787.76 5846.87,1779.25 5846.87,1768.76C5846.87,1758.27 5855.38,1749.77 5865.86,1749.77C5876.36,1749.77 5884.86,1758.27 5884.86,1768.76Z" style="fill:rgb(69,68,104);"/>
            </g>
            <g transform="matrix(1,0,0,1,1665.61,-51.937)">
                <path d="M5884.86,1844.74C5884.86,1855.23 5876.36,1863.73 5865.86,1863.73C5855.38,1863.73 5846.87,1855.23 5846.87,1844.74C5846.87,1834.25 5855.38,1825.74 5865.86,1825.74C5876.36,1825.74 5884.86,1834.25 5884.86,1844.74Z" style="fill:rgb(69,68,104);"/>
            </g>
            <g transform="matrix(1,0,0,1,1665.61,-51.937)">
                <path d="M5884.86,1920.72C5884.86,1931.21 5876.36,1939.71 5865.86,1939.71C5855.38,1939.71 5846.87,1931.21 5846.87,1920.72C5846.87,1910.23 5855.38,1901.73 5865.86,1901.73C5876.36,1901.73 5884.86,1910.23 5884.86,1920.72Z" style="fill:rgb(69,68,104);"/>
            </g>
            <g transform="matrix(1,0,0,1,1665.61,-51.937)">
                <path d="M5884.86,1996.7C5884.86,2007.19 5876.36,2015.69 5865.86,2015.69C5855.38,2015.69 5846.87,2007.19 5846.87,1996.7C5846.87,1986.21 5855.38,1977.7 5865.86,1977.7C5876.36,1977.7 5884.86,1986.21 5884.86,1996.7Z" style="fill:rgb(69,68,104);"/>
            </g>
            <g transform="matrix(1,0,0,1,1665.61,-51.937)">
                <path d="M5884.86,2072.68C5884.86,2083.17 5876.36,2091.67 5865.86,2091.67C5855.38,2091.67 5846.87,2083.17 5846.87,2072.68C5846.87,2062.19 5855.38,2053.68 5865.86,2053.68C5876.36,2053.68 5884.86,2062.19 5884.86,2072.68Z" style="fill:rgb(69,68,104);"/>
            </g>
            <g transform="matrix(1,0,0,1,1665.61,-51.937)">
                <path d="M5884.86,2148.66C5884.86,2159.15 5876.36,2167.65 5865.86,2167.65C5855.38,2167.65 5846.87,2159.15 5846.87,2148.66C5846.87,2138.17 5855.38,2129.66 5865.86,2129.66C5876.36,2129.66 5884.86,2138.17 5884.86,2148.66Z" style="fill:rgb(69,68,104);"/>
            </g>
            <g transform="matrix(1,0,0,1,1665.61,-51.937)">
                <path d="M5884.86,2224.64C5884.86,2235.13 5876.36,2243.63 5865.86,2243.63C5855.38,2243.63 5846.87,2235.13 5846.87,2224.64C5846.87,2214.15 5855.38,2205.64 5865.86,2205.64C5876.36,2205.64 5884.86,2214.15 5884.86,2224.64Z" style="fill:rgb(69,68,104);"/>
            </g>
            <g transform="matrix(1,0,0,1,1665.61,-51.937)">
                <path d="M5884.86,1692.78C5884.86,1703.27 5876.36,1711.78 5865.86,1711.78C5855.38,1711.78 5846.87,1703.27 5846.87,1692.78C5846.87,1682.29 5855.38,1673.79 5865.86,1673.79C5876.36,1673.79 5884.86,1682.29 5884.86,1692.78Z" style="fill:rgb(69,68,104);"/>
            </g>
            <g transform="matrix(1,0,0,1,1665.61,-51.937)">
                <path d="M5808.88,1768.76C5808.88,1779.25 5800.38,1787.76 5789.88,1787.76C5779.39,1787.76 5770.89,1779.25 5770.89,1768.76C5770.89,1758.27 5779.39,1749.77 5789.88,1749.77C5800.38,1749.77 5808.88,1758.27 5808.88,1768.76Z" style="fill:rgb(69,68,104);"/>
            </g>
            <g transform="matrix(1,0,0,1,1665.61,-51.937)">
                <path d="M5808.88,1844.74C5808.88,1855.23 5800.38,1863.73 5789.88,1863.73C5779.39,1863.73 5770.89,1855.23 5770.89,1844.74C5770.89,1834.25 5779.39,1825.74 5789.88,1825.74C5800.38,1825.74 5808.88,1834.25 5808.88,1844.74Z" style="fill:rgb(69,68,104);"/>
            </g>
            <g transform="matrix(1,0,0,1,1665.61,-51.937)">
                <path d="M5808.88,1920.72C5808.88,1931.21 5800.38,1939.71 5789.88,1939.71C5779.39,1939.71 5770.89,1931.21 5770.89,1920.72C5770.89,1910.23 5779.39,1901.73 5789.88,1901.73C5800.38,1901.73 5808.88,1910.23 5808.88,1920.72Z" style="fill:rgb(69,68,104);"/>
            </g>
            <g transform="matrix(1,0,0,1,1665.61,-51.937)">
                <path d="M5808.88,1996.7C5808.88,2007.19 5800.38,2015.69 5789.88,2015.69C5779.39,2015.69 5770.89,2007.19 5770.89,1996.7C5770.89,1986.21 5779.39,1977.7 5789.88,1977.7C5800.38,1977.7 5808.88,1986.21 5808.88,1996.7Z" style="fill:rgb(69,68,104);"/>
            </g>
            <g transform="matrix(1,0,0,1,1665.61,-51.937)">
                <path d="M5808.88,2072.68C5808.88,2083.17 5800.38,2091.67 5789.88,2091.67C5779.39,2091.67 5770.89,2083.17 5770.89,2072.68C5770.89,2062.19 5779.39,2053.68 5789.88,2053.68C5800.38,2053.68 5808.88,2062.19 5808.88,2072.68Z" style="fill:rgb(69,68,104);"/>
            </g>
            <g transform="matrix(1,0,0,1,1665.61,-51.937)">
                <path d="M5808.88,2148.66C5808.88,2159.15 5800.38,2167.65 5789.88,2167.65C5779.39,2167.65 5770.89,2159.15 5770.89,2148.66C5770.89,2138.17 5779.39,2129.66 5789.88,2129.66C5800.38,2129.66 5808.88,2138.17 5808.88,2148.66Z" style="fill:rgb(69,68,104);"/>
            </g>
            <g transform="matrix(1,0,0,1,1665.61,-51.937)">
                <path d="M5808.88,2224.64C5808.88,2235.13 5800.38,2243.63 5789.88,2243.63C5779.39,2243.63 5770.89,2235.13 5770.89,2224.64C5770.89,2214.15 5779.39,2205.64 5789.88,2205.64C5800.38,2205.64 5808.88,2214.15 5808.88,2224.64Z" style="fill:rgb(69,68,104);"/>
            </g>
            <g transform="matrix(1,0,0,1,1665.61,-51.937)">
                <path d="M5808.88,1692.78C5808.88,1703.27 5800.38,1711.78 5789.88,1711.78C5779.39,1711.78 5770.89,1703.27 5770.89,1692.78C5770.89,1682.29 5779.39,1673.79 5789.88,1673.79C5800.38,1673.79 5808.88,1682.29 5808.88,1692.78Z" style="fill:rgb(69,68,104);"/>
            </g>
            <g transform="matrix(1,0,0,1,1665.61,-51.937)">
                <path d="M5960.84,1085.48C5960.84,1095.97 5952.33,1104.47 5941.85,1104.47C5931.36,1104.47 5922.85,1095.97 5922.85,1085.48C5922.85,1074.99 5931.36,1066.48 5941.85,1066.48C5952.33,1066.48 5960.84,1074.99 5960.84,1085.48Z" style="fill:rgb(69,68,104);"/>
            </g>
            <g transform="matrix(1,0,0,1,959.535,-377.923)">
                <path d="M4831.45,1991.81L4784.13,2039.12C4777.49,2045.78 4766.64,2045.78 4759.99,2039.12L4753.34,2032.48C4746.7,2025.83 4746.7,2014.99 4753.34,2008.34L4800.67,1961.02L4753.34,1913.7C4746.7,1907.05 4746.7,1896.2 4753.34,1889.55L4759.99,1882.91C4766.64,1876.26 4777.49,1876.26 4784.13,1882.91L4831.45,1930.23L4878.77,1882.91C4885.42,1876.26 4896.27,1876.26 4902.92,1882.91L4909.56,1889.55C4916.21,1896.2 4916.21,1907.05 4909.56,1913.7L4862.24,1961.02L4909.56,2008.34C4916.21,2014.99 4916.21,2025.83 4909.56,2032.48L4902.92,2039.12C4896.27,2045.78 4885.42,2045.78 4878.77,2039.12L4831.45,1991.81Z" style="fill:rgb(252,226,93);fill-rule:nonzero;"/>
            </g>
            <g transform="matrix(1,0,0,1,3367.59,410.937)">
                <path d="M4171.75,431.5L4124.44,478.821C4117.79,485.47 4106.94,485.47 4100.29,478.821L4093.65,472.179C4087,465.53 4087,454.681 4093.65,448.032L4140.97,400.714L4093.65,353.394C4087,346.745 4087,335.899 4093.65,329.25L4100.29,322.607C4106.94,315.959 4117.79,315.959 4124.44,322.607L4171.75,369.926L4219.07,322.607C4225.72,315.959 4236.57,315.959 4243.22,322.607L4249.86,329.25C4256.51,335.899 4256.51,346.745 4249.86,353.394L4202.54,400.714L4249.86,448.032C4256.51,454.681 4256.51,465.53 4249.86,472.179L4243.22,478.821C4236.57,485.47 4225.72,485.47 4219.07,478.821L4171.75,431.5Z" style="fill:rgb(86,193,171);fill-rule:nonzero;"/>
            </g>
            <g transform="matrix(1,0,0,1,-1828.63,123.31)">
                <path d="M546.842,1250.56L499.523,1297.87C492.875,1304.52 482.027,1304.52 475.381,1297.87L468.738,1291.23C462.087,1284.58 462.087,1273.74 468.738,1267.09L516.056,1219.77L468.738,1172.45C462.087,1165.8 462.087,1154.95 468.738,1148.3L475.381,1141.66C482.027,1135.01 492.875,1135.01 499.523,1141.66L546.842,1188.98L594.163,1141.66C600.812,1135.01 611.657,1135.01 618.307,1141.66L624.95,1148.3C631.6,1154.95 631.6,1165.8 624.95,1172.45L577.63,1219.77L624.95,1267.09C631.6,1273.74 631.6,1284.58 624.95,1291.23L618.307,1297.87C611.657,1304.52 600.812,1304.52 594.163,1297.87L546.842,1250.56Z" style="fill:rgb(252,226,93);fill-rule:nonzero;"/>
            </g>
            <g transform="matrix(1,0,0,1,1665.61,-51.937)">
                <rect x="5748.1" y="2748.1" width="251.9" height="251.9" style="fill:rgb(241,97,111);"/>
            </g>
            <g transform="matrix(1,0,0,1,-1759.66,0)">
                <rect x="0" y="0" width="251.904" height="251.904" style="fill:rgb(241,97,111);"/>
            </g>
            <g transform="matrix(1,0,0,1,1701.98,462.874)">
                <path d="M2766.08,191.582L2603.58,473.034L2441.08,191.582L2766.08,191.582Z" style="fill:rgb(241,97,111);"/>
            </g>
            <g transform="matrix(1,0,0,1,1701.98,462.874)">
                <path d="M2699,105.922C2733.19,105.922 2764.15,119.786 2786.56,142.196C2808.97,164.604 2822.84,195.565 2822.84,229.759C2822.84,263.953 2808.97,294.912 2786.56,317.322C2764.15,339.731 2733.19,353.595 2699,353.595C2664.81,353.595 2633.85,339.731 2611.44,317.322C2589.03,294.912 2575.17,263.953 2575.17,229.759C2575.17,195.565 2589.03,164.604 2611.44,142.196C2633.85,119.786 2664.81,105.922 2699,105.922ZM2774.78,153.977C2755.39,134.584 2728.6,122.589 2699,122.589C2669.41,122.589 2642.61,134.586 2623.22,153.977C2603.83,173.369 2591.83,200.163 2591.83,229.759C2591.83,259.354 2603.83,286.147 2623.22,305.54C2642.61,324.931 2669.41,336.926 2699,336.926C2728.6,336.926 2755.39,324.933 2774.78,305.54C2794.17,286.147 2806.17,259.354 2806.17,229.759C2806.17,200.163 2794.17,173.369 2774.78,153.977Z" style="fill:rgb(3,4,5);fill-rule:nonzero;"/>
            </g>
            <g transform="matrix(1,0,0,1,959.535,-377.923)">
                <path d="M4396.7,2664.62L4503.94,2596.66L4540.82,2532.78L4506.82,2473.88L4396.7,2664.62ZM4499.44,2453.41L4499.44,2453.4L4499.48,2453.33L4499.52,2453.24L4499.54,2453.22L4499.57,2453.16L4499.62,2453.08L4499.64,2453.05L4499.67,2453L4499.71,2452.92L4499.74,2452.88L4499.76,2452.84L4499.81,2452.76L4499.85,2452.71L4499.87,2452.68L4499.91,2452.6L4499.96,2452.54L4499.97,2452.53L4500.02,2452.45L4500.07,2452.38L4500.08,2452.37L4500.13,2452.29L4500.19,2452.22L4500.25,2452.14L4500.3,2452.07L4500.32,2452.06L4500.37,2452L4500.42,2451.92L4500.44,2451.9L4500.48,2451.85L4500.55,2451.78L4500.57,2451.75L4500.61,2451.71L4500.67,2451.64L4500.71,2451.6L4500.74,2451.57L4500.8,2451.5L4500.85,2451.45L4500.87,2451.43L4500.94,2451.36L4500.99,2451.31L4501,2451.3L4501.07,2451.23L4501.13,2451.17L4501.14,2451.17L4501.21,2451.1L4501.28,2451.04L4501.29,2451.03L4501.35,2450.98L4501.42,2450.92L4501.44,2450.9L4501.5,2450.85L4501.57,2450.79L4501.6,2450.77L4501.65,2450.73L4501.72,2450.67L4501.76,2450.64L4501.8,2450.62L4501.88,2450.56L4501.92,2450.52L4501.95,2450.5L4502.03,2450.44L4502.09,2450.4L4502.11,2450.39L4502.19,2450.33L4502.26,2450.29L4502.27,2450.28L4502.42,2450.19L4502.43,2450.18L4502.44,2450.17L4502.52,2450.13L4502.6,2450.08L4502.61,2450.07L4502.69,2450.03L4502.78,2449.98L4502.79,2449.97L4502.86,2449.93L4502.95,2449.88L4502.98,2449.87L4503.04,2449.84L4503.13,2449.8L4503.17,2449.78L4503.21,2449.75L4503.3,2449.71L4503.36,2449.69L4503.39,2449.67L4503.49,2449.63L4503.55,2449.6L4503.58,2449.59L4503.59,2449.58L4503.75,2449.52L4503.76,2449.52L4503.86,2449.48L4503.95,2449.44L4614.63,2408.79L4614.63,2408.8C4616.87,2407.98 4619.44,2408.13 4621.66,2409.41C4623.12,2410.26 4624.24,2411.5 4624.93,2412.91L4731.82,2598.04L4731.92,2598.19L4732.01,2598.34L4732.1,2598.49L4732.1,2598.5L4732.18,2598.64L4732.19,2598.65L4732.27,2598.8L4732.35,2598.95L4732.35,2598.96L4732.42,2599.11L4732.42,2599.12L4732.49,2599.27L4732.5,2599.28L4732.56,2599.43L4732.56,2599.44L4732.63,2599.59L4732.63,2599.6L4732.69,2599.76L4732.74,2599.92L4732.74,2599.93L4732.8,2600.08L4732.8,2600.09L4732.84,2600.25L4732.85,2600.26L4732.89,2600.42L4732.9,2600.42L4732.94,2600.58L4732.94,2600.59L4732.98,2600.75L4732.98,2600.76L4733.02,2600.92L4733.02,2600.93L4733.05,2601.09L4733.05,2601.1L4733.08,2601.26L4733.08,2601.27L4733.11,2601.43L4733.11,2601.44L4733.13,2601.6L4733.13,2601.61L4733.15,2601.77L4733.15,2601.78L4733.16,2601.94L4733.16,2601.95L4733.17,2602.12L4733.18,2602.29L4733.19,2602.46L4733.19,2602.64L4733.18,2602.8L4733.18,2602.98L4733.17,2603.15L4733.16,2603.32L4733.15,2603.32L4733.14,2603.49L4733.12,2603.66L4733.12,2603.67L4733.1,2603.83L4733.1,2603.84L4733.07,2604L4733.07,2604.01L4733.04,2604.17L4733.04,2604.18L4733,2604.34L4733,2604.35L4732.97,2604.51L4732.97,2604.52L4732.93,2604.68L4732.88,2604.85L4732.83,2605.01L4732.83,2605.02L4732.78,2605.18L4732.72,2605.34L4732.67,2605.51L4732.6,2605.67L4732.54,2605.84L4732.47,2605.99L4732.47,2606L4732.39,2606.15L4732.39,2606.16L4732.32,2606.31L4732.32,2606.32L4732.23,2606.47L4732.15,2606.63L4732.06,2606.78L4731.97,2606.93L4731.88,2607.08L4731.78,2607.23L4731.68,2607.38L4731.58,2607.53L4731.46,2607.67L4731.35,2607.82L4731.24,2607.95L4731.12,2608.09L4730.99,2608.23L4730.87,2608.37L4647.46,2695.08C4645.93,2696.92 4643.63,2698.09 4641.05,2698.09L4372.58,2698.09C4367.98,2698.09 4364.25,2694.36 4364.25,2689.75C4364.25,2688.03 4364.78,2686.43 4365.67,2685.1L4499.44,2453.41ZM4710.49,2594.27L4627.05,2449.75L4617.5,2433.22L4560.02,2532.78L4595.52,2594.27L4710.49,2594.27ZM4550.42,2516.15L4598.81,2432.33L4518.96,2461.66L4550.42,2516.15ZM4705.33,2610.94L4605.14,2610.94L4642.72,2676.03L4705.33,2610.94ZM4583.23,2606.23L4550.42,2549.41L4517.54,2606.36C4516.88,2607.66 4515.88,2608.8 4514.56,2609.63L4401.29,2681.42L4626.64,2681.42L4583.83,2607.27C4583.6,2606.94 4583.4,2606.59 4583.23,2606.23Z" style="fill:rgb(86,193,171);fill-rule:nonzero;"/>
            </g>
            <g transform="matrix(1,0,0,1,-1828.63,123.31)">
                <path d="M182.937,416.296C182.937,422.589 177.834,427.692 171.539,427.692C165.245,427.692 160.142,422.589 160.142,416.296C160.142,410.001 165.245,404.899 171.539,404.899C177.834,404.899 182.937,410.001 182.937,416.296Z" style="fill:rgb(69,68,104);"/>
            </g>
            <g transform="matrix(1,0,0,1,-1828.63,123.31)">
                <path d="M182.937,461.883C182.937,468.176 177.834,473.279 171.539,473.279C165.245,473.279 160.142,468.176 160.142,461.883C160.142,455.589 165.245,450.486 171.539,450.486C177.834,450.486 182.937,455.589 182.937,461.883Z" style="fill:rgb(69,68,104);"/>
            </g>
            <g transform="matrix(1,0,0,1,-1828.63,123.31)">
                <path d="M182.937,507.471C182.937,513.764 177.834,518.866 171.539,518.866C165.245,518.866 160.142,513.764 160.142,507.471C160.142,501.176 165.245,496.073 171.539,496.073C177.834,496.073 182.937,501.176 182.937,507.471Z" style="fill:rgb(69,68,104);"/>
            </g>
            <g transform="matrix(1,0,0,1,-1828.63,123.31)">
                <path d="M182.937,553.058C182.937,559.351 177.834,564.453 171.539,564.453C165.245,564.453 160.142,559.351 160.142,553.058C160.142,546.763 165.245,541.66 171.539,541.66C177.834,541.66 182.937,546.763 182.937,553.058Z" style="fill:rgb(69,68,104);"/>
            </g>
            <g transform="matrix(1,0,0,1,-1828.63,123.31)">
                <path d="M182.937,598.645C182.937,604.94 177.834,610.041 171.539,610.041C165.245,610.041 160.142,604.94 160.142,598.645C160.142,592.35 165.245,587.248 171.539,587.248C177.834,587.248 182.937,592.35 182.937,598.645Z" style="fill:rgb(69,68,104);"/>
            </g>
            <g transform="matrix(1,0,0,1,-1828.63,123.31)">
                <path d="M182.937,644.23C182.937,650.525 177.834,655.627 171.539,655.627C165.245,655.627 160.142,650.525 160.142,644.23C160.142,637.938 165.245,632.835 171.539,632.835C177.834,632.835 182.937,637.938 182.937,644.23Z" style="fill:rgb(69,68,104);"/>
            </g>
            <g transform="matrix(1,0,0,1,-1828.63,123.31)">
                <path d="M182.937,689.817C182.937,696.112 177.834,701.215 171.539,701.215C165.245,701.215 160.142,696.112 160.142,689.817C160.142,683.524 165.245,678.422 171.539,678.422C177.834,678.422 182.937,683.524 182.937,689.817Z" style="fill:rgb(69,68,104);"/>
            </g>
            <g transform="matrix(1,0,0,1,-1828.63,123.31)">
                <path d="M137.349,416.296C137.349,422.589 132.247,427.692 125.952,427.692C119.658,427.692 114.555,422.589 114.555,416.296C114.555,410.001 119.658,404.899 125.952,404.899C132.247,404.899 137.349,410.001 137.349,416.296Z" style="fill:rgb(69,68,104);"/>
            </g>
            <g transform="matrix(1,0,0,1,-1828.63,123.31)">
                <path d="M137.349,461.883C137.349,468.176 132.247,473.279 125.952,473.279C119.658,473.279 114.555,468.176 114.555,461.883C114.555,455.589 119.658,450.486 125.952,450.486C132.247,450.486 137.349,455.589 137.349,461.883Z" style="fill:rgb(69,68,104);"/>
            </g>
            <g transform="matrix(1,0,0,1,-1828.63,123.31)">
                <path d="M137.349,507.471C137.349,513.764 132.247,518.866 125.952,518.866C119.658,518.866 114.555,513.764 114.555,507.471C114.555,501.176 119.658,496.073 125.952,496.073C132.247,496.073 137.349,501.176 137.349,507.471Z" style="fill:rgb(69,68,104);"/>
            </g>
            <g transform="matrix(1,0,0,1,-1828.63,123.31)">
                <path d="M137.349,553.058C137.349,559.351 132.247,564.453 125.952,564.453C119.658,564.453 114.555,559.351 114.555,553.058C114.555,546.763 119.658,541.66 125.952,541.66C132.247,541.66 137.349,546.763 137.349,553.058Z" style="fill:rgb(69,68,104);"/>
            </g>
            <g transform="matrix(1,0,0,1,-1828.63,123.31)">
                <path d="M137.349,598.645C137.349,604.94 132.247,610.041 125.952,610.041C119.658,610.041 114.555,604.94 114.555,598.645C114.555,592.35 119.658,587.248 125.952,587.248C132.247,587.248 137.349,592.35 137.349,598.645Z" style="fill:rgb(69,68,104);"/>
            </g>
            <g transform="matrix(1,0,0,1,-1828.63,123.31)">
                <path d="M137.349,644.23C137.349,650.525 132.247,655.627 125.952,655.627C119.658,655.627 114.555,650.525 114.555,644.23C114.555,637.938 119.658,632.835 125.952,632.835C132.247,632.835 137.349,637.938 137.349,644.23Z" style="fill:rgb(69,68,104);"/>
            </g>
            <g transform="matrix(1,0,0,1,-1828.63,123.31)">
                <path d="M137.349,689.817C137.349,696.112 132.247,701.215 125.952,701.215C119.658,701.215 114.555,696.112 114.555,689.817C114.555,683.524 119.658,678.422 125.952,678.422C132.247,678.422 137.349,683.524 137.349,689.817Z" style="fill:rgb(69,68,104);"/>
            </g>
            <g transform="matrix(1,0,0,1,-1828.63,123.31)">
                <path d="M137.349,370.709C137.349,377.004 132.247,382.104 125.952,382.104C119.658,382.104 114.555,377.004 114.555,370.709C114.555,364.415 119.658,359.312 125.952,359.312C132.247,359.312 137.349,364.415 137.349,370.709Z" style="fill:rgb(69,68,104);"/>
            </g>
            <g transform="matrix(1,0,0,1,-1828.63,123.31)">
                <path d="M91.762,416.296C91.762,422.589 86.659,427.692 80.364,427.692C74.07,427.692 68.967,422.589 68.967,416.296C68.967,410.001 74.07,404.899 80.364,404.899C86.659,404.899 91.762,410.001 91.762,416.296Z" style="fill:rgb(69,68,104);"/>
            </g>
            <g transform="matrix(1,0,0,1,-1828.63,123.31)">
                <path d="M91.762,461.883C91.762,468.176 86.659,473.279 80.364,473.279C74.07,473.279 68.967,468.176 68.967,461.883C68.967,455.589 74.07,450.486 80.364,450.486C86.659,450.486 91.762,455.589 91.762,461.883Z" style="fill:rgb(69,68,104);"/>
            </g>
            <g transform="matrix(1,0,0,1,-1828.63,123.31)">
                <path d="M91.762,507.471C91.762,513.764 86.659,518.866 80.364,518.866C74.07,518.866 68.967,513.764 68.967,507.471C68.967,501.176 74.07,496.073 80.364,496.073C86.659,496.073 91.762,501.176 91.762,507.471Z" style="fill:rgb(69,68,104);"/>
            </g>
            <g transform="matrix(1,0,0,1,-1828.63,123.31)">
                <path d="M91.762,553.058C91.762,559.351 86.659,564.453 80.364,564.453C74.07,564.453 68.967,559.351 68.967,553.058C68.967,546.763 74.07,541.66 80.364,541.66C86.659,541.66 91.762,546.763 91.762,553.058Z" style="fill:rgb(69,68,104);"/>
            </g>
            <g transform="matrix(1,0,0,1,-1828.63,123.31)">
                <path d="M91.762,598.645C91.762,604.94 86.659,610.041 80.364,610.041C74.07,610.041 68.967,604.94 68.967,598.645C68.967,592.35 74.07,587.248 80.364,587.248C86.659,587.248 91.762,592.35 91.762,598.645Z" style="fill:rgb(69,68,104);"/>
            </g>
            <g transform="matrix(1,0,0,1,-1828.63,123.31)">
                <path d="M91.762,644.23C91.762,650.525 86.659,655.627 80.364,655.627C74.07,655.627 68.967,650.525 68.967,644.23C68.967,637.938 74.07,632.835 80.364,632.835C86.659,632.835 91.762,637.938 91.762,644.23Z" style="fill:rgb(69,68,104);"/>
            </g>
            <g transform="matrix(1,0,0,1,-1828.63,123.31)">
                <path d="M91.762,689.817C91.762,696.112 86.659,701.215 80.364,701.215C74.07,701.215 68.967,696.112 68.967,689.817C68.967,683.524 74.07,678.422 80.364,678.422C86.659,678.422 91.762,683.524 91.762,689.817Z" style="fill:rgb(69,68,104);"/>
            </g>
            <g transform="matrix(1,0,0,1,-1828.63,123.31)">
                <path d="M91.762,370.709C91.762,377.004 86.659,382.104 80.364,382.104C74.07,382.104 68.967,377.004 68.967,370.709C68.967,364.415 74.07,359.312 80.364,359.312C86.659,359.312 91.762,364.415 91.762,370.709Z" style="fill:rgb(69,68,104);"/>
            </g>
            <g transform="matrix(1,0,0,1,-1828.63,123.31)">
                <path d="M182.937,780.674C182.937,786.969 177.834,792.071 171.539,792.071C165.245,792.071 160.142,786.969 160.142,780.674C160.142,774.381 165.245,769.278 171.539,769.278C177.834,769.278 182.937,774.381 182.937,780.674Z" style="fill:rgb(69,68,104);"/>
            </g>
            <g transform="matrix(1,0,0,1,-1828.63,123.31)">
                <path d="M182.937,826.262C182.937,832.556 177.834,837.659 171.539,837.659C165.245,837.659 160.142,832.556 160.142,826.262C160.142,819.967 165.245,814.864 171.539,814.864C177.834,814.864 182.937,819.967 182.937,826.262Z" style="fill:rgb(69,68,104);"/>
            </g>
            <g transform="matrix(1,0,0,1,-1828.63,123.31)">
                <path d="M182.937,871.848C182.937,878.143 177.834,883.246 171.539,883.246C165.245,883.246 160.142,878.143 160.142,871.848C160.142,865.554 165.245,860.451 171.539,860.451C177.834,860.451 182.937,865.554 182.937,871.848Z" style="fill:rgb(69,68,104);"/>
            </g>
            <g transform="matrix(1,0,0,1,-1828.63,123.31)">
                <path d="M182.937,917.436C182.937,923.73 177.834,928.833 171.539,928.833C165.245,928.833 160.142,923.73 160.142,917.436C160.142,911.143 165.245,906.039 171.539,906.039C177.834,906.039 182.937,911.143 182.937,917.436Z" style="fill:rgb(69,68,104);"/>
            </g>
            <g transform="matrix(1,0,0,1,-1828.63,123.31)">
                <path d="M182.937,963.022C182.937,969.315 177.834,974.42 171.539,974.42C165.245,974.42 160.142,969.315 160.142,963.022C160.142,956.729 165.245,951.625 171.539,951.625C177.834,951.625 182.937,956.729 182.937,963.022Z" style="fill:rgb(69,68,104);"/>
            </g>
            <g transform="matrix(1,0,0,1,-1828.63,123.31)">
                <path d="M182.937,1008.61C182.937,1014.9 177.834,1020.01 171.539,1020.01C165.245,1020.01 160.142,1014.9 160.142,1008.61C160.142,1002.32 165.245,997.213 171.539,997.213C177.834,997.213 182.937,1002.32 182.937,1008.61Z" style="fill:rgb(69,68,104);"/>
            </g>
            <g transform="matrix(1,0,0,1,-1828.63,123.31)">
                <path d="M182.937,1054.2C182.937,1060.49 177.834,1065.59 171.539,1065.59C165.245,1065.59 160.142,1060.49 160.142,1054.2C160.142,1047.9 165.245,1042.8 171.539,1042.8C177.834,1042.8 182.937,1047.9 182.937,1054.2Z" style="fill:rgb(69,68,104);"/>
            </g>
            <g transform="matrix(1,0,0,1,-1828.63,123.31)">
                <path d="M182.937,735.087C182.937,741.382 177.834,746.484 171.539,746.484C165.245,746.484 160.142,741.382 160.142,735.087C160.142,728.792 165.245,723.69 171.539,723.69C177.834,723.69 182.937,728.792 182.937,735.087Z" style="fill:rgb(69,68,104);"/>
            </g>
            <g transform="matrix(1,0,0,1,-1828.63,123.31)">
                <path d="M137.349,780.674C137.349,786.969 132.247,792.071 125.952,792.071C119.658,792.071 114.555,786.969 114.555,780.674C114.555,774.381 119.658,769.278 125.952,769.278C132.247,769.278 137.349,774.381 137.349,780.674Z" style="fill:rgb(69,68,104);"/>
            </g>
            <g transform="matrix(1,0,0,1,-1828.63,123.31)">
                <path d="M137.349,826.262C137.349,832.556 132.247,837.659 125.952,837.659C119.658,837.659 114.555,832.556 114.555,826.262C114.555,819.967 119.658,814.864 125.952,814.864C132.247,814.864 137.349,819.967 137.349,826.262Z" style="fill:rgb(69,68,104);"/>
            </g>
            <g transform="matrix(1,0,0,1,-1828.63,123.31)">
                <path d="M137.349,871.848C137.349,878.143 132.247,883.246 125.952,883.246C119.658,883.246 114.555,878.143 114.555,871.848C114.555,865.554 119.658,860.451 125.952,860.451C132.247,860.451 137.349,865.554 137.349,871.848Z" style="fill:rgb(69,68,104);"/>
            </g>
            <g transform="matrix(1,0,0,1,-1828.63,123.31)">
                <path d="M137.349,917.436C137.349,923.73 132.247,928.833 125.952,928.833C119.658,928.833 114.555,923.73 114.555,917.436C114.555,911.143 119.658,906.039 125.952,906.039C132.247,906.039 137.349,911.143 137.349,917.436Z" style="fill:rgb(69,68,104);"/>
            </g>
            <g transform="matrix(1,0,0,1,-1828.63,123.31)">
                <path d="M137.349,963.022C137.349,969.315 132.247,974.42 125.952,974.42C119.658,974.42 114.555,969.315 114.555,963.022C114.555,956.729 119.658,951.625 125.952,951.625C132.247,951.625 137.349,956.729 137.349,963.022Z" style="fill:rgb(69,68,104);"/>
            </g>
            <g transform="matrix(1,0,0,1,-1828.63,123.31)">
                <path d="M137.349,1008.61C137.349,1014.9 132.247,1020.01 125.952,1020.01C119.658,1020.01 114.555,1014.9 114.555,1008.61C114.555,1002.32 119.658,997.213 125.952,997.213C132.247,997.213 137.349,1002.32 137.349,1008.61Z" style="fill:rgb(69,68,104);"/>
            </g>
            <g transform="matrix(1,0,0,1,-1828.63,123.31)">
                <path d="M137.349,1054.2C137.349,1060.49 132.247,1065.59 125.952,1065.59C119.658,1065.59 114.555,1060.49 114.555,1054.2C114.555,1047.9 119.658,1042.8 125.952,1042.8C132.247,1042.8 137.349,1047.9 137.349,1054.2Z" style="fill:rgb(69,68,104);"/>
            </g>
            <g transform="matrix(1,0,0,1,-1828.63,123.31)">
                <path d="M137.349,735.087C137.349,741.382 132.247,746.484 125.952,746.484C119.658,746.484 114.555,741.382 114.555,735.087C114.555,728.792 119.658,723.69 125.952,723.69C132.247,723.69 137.349,728.792 137.349,735.087Z" style="fill:rgb(69,68,104);"/>
            </g>
            <g transform="matrix(1,0,0,1,-1828.63,123.31)">
                <path d="M91.762,780.674C91.762,786.969 86.659,792.071 80.364,792.071C74.07,792.071 68.967,786.969 68.967,780.674C68.967,774.381 74.07,769.278 80.364,769.278C86.659,769.278 91.762,774.381 91.762,780.674Z" style="fill:rgb(69,68,104);"/>
            </g>
            <g transform="matrix(1,0,0,1,-1828.63,123.31)">
                <path d="M91.762,826.262C91.762,832.556 86.659,837.659 80.364,837.659C74.07,837.659 68.967,832.556 68.967,826.262C68.967,819.967 74.07,814.864 80.364,814.864C86.659,814.864 91.762,819.967 91.762,826.262Z" style="fill:rgb(69,68,104);"/>
            </g>
            <g transform="matrix(1,0,0,1,-1828.63,123.31)">
                <path d="M91.762,871.848C91.762,878.143 86.659,883.246 80.364,883.246C74.07,883.246 68.967,878.143 68.967,871.848C68.967,865.554 74.07,860.451 80.364,860.451C86.659,860.451 91.762,865.554 91.762,871.848Z" style="fill:rgb(69,68,104);"/>
            </g>
            <g transform="matrix(1,0,0,1,-1828.63,123.31)">
                <path d="M91.762,917.436C91.762,923.73 86.659,928.833 80.364,928.833C74.07,928.833 68.967,923.73 68.967,917.436C68.967,911.143 74.07,906.039 80.364,906.039C86.659,906.039 91.762,911.143 91.762,917.436Z" style="fill:rgb(69,68,104);"/>
            </g>
            <g transform="matrix(1,0,0,1,-1828.63,123.31)">
                <path d="M91.762,963.022C91.762,969.315 86.659,974.42 80.364,974.42C74.07,974.42 68.967,969.315 68.967,963.022C68.967,956.729 74.07,951.625 80.364,951.625C86.659,951.625 91.762,956.729 91.762,963.022Z" style="fill:rgb(69,68,104);"/>
            </g>
            <g transform="matrix(1,0,0,1,-1828.63,123.31)">
                <path d="M91.762,1008.61C91.762,1014.9 86.659,1020.01 80.364,1020.01C74.07,1020.01 68.967,1014.9 68.967,1008.61C68.967,1002.32 74.07,997.213 80.364,997.213C86.659,997.213 91.762,1002.32 91.762,1008.61Z" style="fill:rgb(69,68,104);"/>
            </g>
            <g transform="matrix(1,0,0,1,-1828.63,123.31)">
                <path d="M91.762,1054.2C91.762,1060.49 86.659,1065.59 80.364,1065.59C74.07,1065.59 68.967,1060.49 68.967,1054.2C68.967,1047.9 74.07,1042.8 80.364,1042.8C86.659,1042.8 91.762,1047.9 91.762,1054.2Z" style="fill:rgb(69,68,104);"/>
            </g>
            <g transform="matrix(1,0,0,1,-1828.63,123.31)">
                <path d="M91.762,735.087C91.762,741.382 86.659,746.484 80.364,746.484C74.07,746.484 68.967,741.382 68.967,735.087C68.967,728.792 74.07,723.69 80.364,723.69C86.659,723.69 91.762,728.792 91.762,735.087Z" style="fill:rgb(69,68,104);"/>
            </g>
            <g transform="matrix(1,0,0,1,-1828.63,123.31)">
                <path d="M182.937,370.709C182.937,377.004 177.834,382.104 171.539,382.104C165.245,382.104 160.142,377.004 160.142,370.709C160.142,364.415 165.245,359.312 171.539,359.312C177.834,359.312 182.937,364.415 182.937,370.709Z" style="fill:rgb(69,68,104);"/>
            </g>
            <g transform="matrix(1,0,0,1,-786.652,-1099.71)">
                <path d="M755.797,2633.22C750.083,2633.22 737.779,2628.59 728.314,2622.88C718.85,2617.16 715.808,2612.53 721.519,2612.53L2319.5,2612.53C2325.22,2612.53 2337.52,2617.16 2346.99,2622.88C2356.45,2628.59 2359.49,2633.22 2353.78,2633.22L755.797,2633.22Z" style="fill:rgb(86,193,171);fill-rule:nonzero;"/>
            </g>
            <g transform="matrix(1,0,0,1,-786.652,-1099.71)">
                <path d="M667.315,2682.81C661.603,2682.81 649.3,2678.18 639.833,2672.47C630.369,2666.76 627.326,2662.13 633.039,2662.13L2187.58,2662.13C2193.29,2662.13 2205.6,2666.76 2215.06,2672.47C2224.53,2678.18 2227.57,2682.81 2221.86,2682.81L667.315,2682.81Z" style="fill:rgb(86,193,171);fill-rule:nonzero;"/>
            </g>
            <g transform="matrix(1,0,0,1,-786.652,-1099.71)">
                <path d="M826.176,2583.62C820.465,2583.62 808.161,2578.99 798.696,2573.28C789.231,2567.57 786.188,2562.94 791.898,2562.94L2401.07,2562.94C2406.78,2562.94 2419.09,2567.57 2428.55,2573.28C2438.02,2578.99 2441.06,2583.62 2435.35,2583.62L826.176,2583.62Z" style="fill:rgb(86,193,171);fill-rule:nonzero;"/>
            </g>
            <g transform="matrix(1,0,0,1,-1828.63,123.31)">
                <path d="M993.53,192.702C995.096,191.134 999.741,189.03 1003.9,188C1008.07,186.971 1010.17,187.406 1008.61,188.973L570.3,627.279C568.732,628.845 564.087,630.951 559.924,631.98C555.762,633.01 553.658,632.574 555.225,631.006L993.53,192.702Z" style="fill:rgb(69,68,104);fill-rule:nonzero;"/>
            </g>
            <g transform="matrix(1,0,0,1,-1828.63,123.31)">
                <path d="M1004.2,154.83C1005.76,153.261 1010.41,151.158 1014.57,150.128C1018.73,149.099 1020.84,149.535 1019.27,151.101L592.881,577.491C591.315,579.057 586.67,581.163 582.507,582.192C578.344,583.222 576.239,582.786 577.806,581.217L1004.2,154.83Z" style="fill:rgb(69,68,104);fill-rule:nonzero;"/>
            </g>
            <g transform="matrix(1,0,0,1,-1828.63,123.31)">
                <path d="M987.828,225.61C989.396,224.042 994.041,221.938 998.204,220.906C1002.37,219.879 1004.47,220.314 1002.9,221.881L561.53,663.255C559.965,664.821 555.318,666.925 551.156,667.956C546.993,668.984 544.89,668.548 546.454,666.982L987.828,225.61Z" style="fill:rgb(69,68,104);fill-rule:nonzero;"/>
            </g>
            <g transform="matrix(1,0,0,1,1665.61,-51.937)">
                <path d="M5681.03,2480.2C5682.6,2478.63 5687.24,2476.53 5691.41,2475.5C5695.57,2474.47 5697.67,2474.91 5696.11,2476.47L5257.8,2914.78C5256.23,2916.34 5251.59,2918.45 5247.43,2919.48C5243.26,2920.51 5241.16,2920.07 5242.72,2918.5L5681.03,2480.2Z" style="fill:rgb(69,68,104);fill-rule:nonzero;"/>
            </g>
            <g transform="matrix(1,0,0,1,1665.61,-51.937)">
                <path d="M5691.69,2442.33C5693.26,2440.76 5697.91,2438.66 5702.07,2437.63C5706.23,2436.6 5708.34,2437.04 5706.77,2438.6L5280.38,2864.99C5278.82,2866.56 5274.17,2868.66 5270.01,2869.69C5265.84,2870.72 5263.74,2870.28 5265.31,2868.72L5691.69,2442.33Z" style="fill:rgb(69,68,104);fill-rule:nonzero;"/>
            </g>
            <g transform="matrix(1,0,0,1,1665.61,-51.937)">
                <path d="M5675.33,2513.11C5676.9,2511.54 5681.54,2509.44 5685.7,2508.41C5689.87,2507.38 5691.97,2507.82 5690.41,2509.38L5249.03,2950.76C5247.46,2952.32 5242.82,2954.43 5238.65,2955.46C5234.49,2956.49 5232.39,2956.05 5233.96,2954.48L5675.33,2513.11Z" style="fill:rgb(69,68,104);fill-rule:nonzero;"/>
            </g>
        </g>
    </g>
</svg>
