<svg width="169" height="646" viewBox="0 0 169 646" fill="none" xmlns="http://www.w3.org/2000/svg">
<g opacity="0.1">
<path fill-rule="evenodd" clip-rule="evenodd" d="M403.465 128.727H201.535L139.121 347.322L302.497 482.429L465.878 347.322L403.465 128.727ZM134 349.213L198.369 123.771H406.631L471 349.213L302.497 488.553L134 349.213Z" fill="white"/>
<path fill-rule="evenodd" clip-rule="evenodd" d="M409.214 119.319H195.791L129.822 350.299L302.503 493.05L475.183 350.299L409.214 119.319ZM126.206 353.069L125 352.071L192.809 114.651H412.203L480 352.071L302.503 498.813L126.206 353.069Z" fill="white"/>
<path fill-rule="evenodd" clip-rule="evenodd" d="M414.949 109.916H190.045L120.523 353.254L302.497 503.657L484.471 353.254L414.949 109.916ZM116 354.934L187.241 105.532H417.747L489 354.934L302.497 509.072L116 354.934Z" fill="white"/>
<path fill-rule="evenodd" clip-rule="evenodd" d="M420.7 101.641H184.3L111.229 357.37L302.5 515.412L493.77 357.37L420.7 101.641ZM107 358.925L181.68 97.5522H423.32L498 358.925L302.5 520.472L107 358.925Z" fill="white"/>
<path fill-rule="evenodd" clip-rule="evenodd" d="M426.639 92.2325H179.361L102.932 360.335L302.997 526.026L503.068 360.335L426.639 92.2325ZM99 361.786L176.937 88.4327H429.063L507 361.786L302.997 530.731L99 361.786Z" fill="white"/>
<path fill-rule="evenodd" clip-rule="evenodd" d="M432.383 82.8371H173.612L93.6279 363.297L302.997 536.64L512.372 363.297L432.383 82.8371ZM90.9041 365.397L90 364.642L171.378 79.3131H434.628L516 364.642L302.997 540.991L90.9041 365.397Z" fill="white"/>
<path fill-rule="evenodd" clip-rule="evenodd" d="M438.124 73.4222H167.877L84.3467 366.264L303 547.254L521.66 366.264L438.124 73.4222ZM81 367.498L165.814 70.1936H440.191L525 367.498L303 551.25L81 367.498Z" fill="white"/>
<path fill-rule="evenodd" clip-rule="evenodd" d="M530.959 369.236L443.874 64.0202H162.133L75.042 369.236L303 557.875L530.959 369.236ZM72.7604 370.995L72 370.365L159.955 62.0911L160.249 61.074H445.751L534 370.365L303.76 560.887L303 561.51L72.7604 370.995Z" fill="white"/>
<path fill-rule="evenodd" clip-rule="evenodd" d="M449.618 54.6119H156.381L65.748 372.195L303.003 568.482L540.251 372.195L449.618 54.6119ZM63 373.218L154.688 51.9544H451.312L543 373.218L303.003 571.769L63 373.218Z" fill="white"/>
<path fill-rule="evenodd" clip-rule="evenodd" d="M455.357 45.2035H150.637L56.4434 375.173L303 579.103L549.551 375.173L455.357 45.2035ZM54.6109 376.584L54 376.086L148.885 43.6551L149.121 42.8349H456.879L551.764 375.265L552 376.086L303 582.029L54.6109 376.584Z" fill="white"/>
<path fill-rule="evenodd" clip-rule="evenodd" d="M461.108 36.9351H144.891L47.1494 379.272L302.997 590.85L558.85 379.272L461.108 36.9351ZM45.536 380.512L45 380.066L143.353 35.577L143.566 34.8553H462.434L560.798 379.345L561 380.066L302.997 593.428L45.536 380.512Z" fill="white"/>
<path fill-rule="evenodd" clip-rule="evenodd" d="M568.133 382.243L466.851 27.5464H139.156L37.8682 382.243L303 601.464L568.133 382.243ZM36.4727 383.312L36 382.925L137.83 26.3655L138.009 25.7357H467.997L569.821 382.302L570 382.925L303.467 603.294L303 603.688L36.4727 383.312Z" fill="white"/>
<path fill-rule="evenodd" clip-rule="evenodd" d="M472.595 18.1316H133.405L28.5625 385.21L302.997 612.084L577.432 385.21L472.595 18.1316ZM27.3863 386.115L27 385.787L132.292 17.1475L132.436 16.6161H473.558L578.856 385.269L579 385.787L302.997 613.947L27.3863 386.115Z" fill="white"/>
<path fill-rule="evenodd" clip-rule="evenodd" d="M586.732 388.178L478.341 8.72336H127.665L19.2686 388.178L303 622.685L586.732 388.178ZM18.3229 388.906L18 388.637L126.76 7.91643L126.881 7.49658H479.125L587.879 388.217L588 388.637L303.323 623.938L303 624.207L18.3229 388.906Z" fill="white"/>
<path fill-rule="evenodd" clip-rule="evenodd" d="M596.02 391.842L484.081 -0.689742H121.919L9.97461 391.842L302.994 634.437L596.02 391.842ZM9.24797 392.401L9 392.204L121.319 -1.62296H484.681L597 392.204L303.236 635.403L302.994 635.606L9.24797 392.401Z" fill="white"/>
<path fill-rule="evenodd" clip-rule="evenodd" d="M115.753 -10.7425L115.69 -10.5125L0 395.056L0.173024 395.201L303 645.866L303.167 645.721L606 395.056L605.942 394.833L490.253 -10.7425H115.753ZM0.674805 394.806L116.18 -10.092H489.826L605.325 394.806L303 645.044L0.674805 394.806Z" fill="white"/>
</g>
</svg>
