<svg width="569" height="511" viewBox="0 0 569 511" fill="none" xmlns="http://www.w3.org/2000/svg">
<path d="M464.565 509.865C464.565 503.38 467.084 497.161 471.568 492.575C476.051 487.99 482.132 485.414 488.473 485.414C494.814 485.414 500.894 487.99 505.378 492.575C509.862 497.161 512.38 503.38 512.38 509.865" fill="#679B35"/>
<path d="M430.516 453.53C422.931 453.522 415.426 455.12 408.474 458.224C401.522 461.327 395.274 465.868 390.121 471.562C382.691 471.576 375.432 473.847 369.266 478.088C363.1 482.329 358.305 488.347 355.489 495.38C351.722 495.38 348.11 496.91 345.447 499.634C342.783 502.358 341.287 506.052 341.287 509.904H485.599C485.599 494.96 479.796 480.627 469.468 470.055C459.139 459.484 445.128 453.54 430.516 453.53Z" fill="#77B541"/>
<path d="M398.274 464.158C395.327 466.333 392.596 468.8 390.121 471.522C382.691 471.536 375.432 473.808 369.266 478.049C363.1 482.289 358.305 488.308 355.489 495.34C351.722 495.34 348.11 496.871 345.447 499.595C342.783 502.319 341.287 506.013 341.287 509.865H398.274V464.158Z" fill="#679B35"/>
<path d="M430.516 453.53C422.931 453.522 415.426 455.12 408.474 458.224C401.522 461.327 395.273 465.868 390.121 471.562" stroke="#1E2454" stroke-width="1.90498" stroke-miterlimit="10" stroke-linecap="round"/>
<path d="M355.488 495.34C351.723 495.343 348.113 496.874 345.452 499.598C342.791 502.322 341.296 506.015 341.296 509.865H512.382C512.382 505.978 511.475 502.146 509.738 498.688C508 495.231 505.482 492.247 502.391 489.984C499.3 487.721 495.726 486.244 491.966 485.676C488.205 485.109 484.367 485.466 480.769 486.719" stroke="#1E2454" stroke-width="1.90498" stroke-miterlimit="10" stroke-linecap="round"/>
<path d="M120.938 310.191C141.893 223.978 117.242 186.21 117.242 186.21L66.5699 184.836C66.5699 184.836 10.9541 289.87 65.1602 495.711L43.7102 509.865H113.432C113.432 509.865 105.555 373.648 120.938 310.191Z" fill="#303030"/>
<path d="M80.1803 500.903C78.431 500.906 76.6998 500.541 75.094 499.831L65.2167 495.506L65.2929 495.711L38.6709 509.865H113.565C113.565 509.865 113.289 506.728 112.879 501.205L112.774 500.903H80.1803Z" fill="#1E2454"/>
<path d="M154.999 307.405C175.953 221.192 155.475 186.249 155.475 186.249L83.7144 191.685C83.7144 191.685 43.0432 339.845 103.393 495.711L76.7708 509.865H151.665C151.665 509.865 139.578 370.804 154.999 307.405Z" fill="#303030"/>
<path d="M117.241 186.21L66.5689 184.836C66.5689 184.836 62.0351 193.419 56.8154 210.457C83.1136 212.882 111.431 208.869 123.794 202.245C120.613 191.383 117.241 186.21 117.241 186.21Z" fill="#1E2454"/>
<path d="M155.474 186.21L83.7139 191.646" stroke="#7F8AC9" stroke-width="0.952488" stroke-miterlimit="10" stroke-linecap="round"/>
<path d="M156.685 142.431C156.685 101.955 139.007 67.8686 114.937 57.6107C110.638 63.1845 104.666 67.1576 97.9413 68.918C91.2166 70.6783 84.1125 70.1282 77.7237 67.3523C66.9415 84.7898 65.7223 117.531 65.7223 150.711C65.7223 160.706 59.4645 181.953 58.1882 193.574C58.0366 194.921 58.3562 196.279 59.0902 197.408C59.8242 198.537 60.9252 199.363 62.1981 199.741C74.0566 203.238 92.792 203.706 105.06 203.706C118.976 203.706 142.531 199.4 155.304 192.99C156.751 192.273 157.994 191.188 158.913 189.839C159.832 188.489 160.396 186.921 160.552 185.284C161.647 172.971 156.685 154.511 156.685 142.431Z" fill="#595959"/>
<path d="M64.921 158.787C63.9113 165.1 62.1397 172.776 60.6348 179.868C66.845 179.79 73.1949 179.589 79.6845 179.264C110.917 177.686 139.101 173.468 159.589 167.895C158.636 160.852 157.398 153.595 156.893 147.35C136.558 152.708 109.069 156.741 78.6749 158.281C74.0267 158.514 69.4421 158.683 64.921 158.787Z" fill="#DA2B74"/>
<path d="M62.1982 199.761C74.0567 203.258 92.7922 203.725 105.06 203.725C118.976 203.725 142.531 199.42 155.304 193.01" stroke="#1E2454" stroke-width="0.952488" stroke-miterlimit="10" stroke-linecap="round"/>
<path d="M77.723 67.3522C77.723 67.3522 -6.09598 125.529 1.52393 169.639C9.14383 213.749 120.471 205.332 129.424 188.148C138.377 170.964 145.388 171.821 151.703 164.125C158.018 156.43 129.367 165.178 129.367 165.178C129.367 165.178 132.729 155.602 124.604 157.871C116.48 160.141 109.574 175.961 64.5977 168.431C27.7745 162.255 87.7812 121.827 87.7812 121.827L75.3989 107.059" fill="#595959"/>
<path d="M78.305 150.371C108.785 148.841 136.292 144.789 156.647 139.421C156.5 132.472 155.808 125.546 154.58 118.71C134.34 123.932 107.223 127.877 77.2954 129.426C73.4854 129.621 69.7104 129.77 65.9703 129.874C65.7798 136.693 65.7227 143.727 65.7227 150.751V150.897C69.8565 150.767 74.0506 150.591 78.305 150.371Z" fill="#DA2B74"/>
<path d="M65.7786 107.021C65.7786 107.021 54.9489 132.544 57.8063 148.13C60.2486 145.041 62.9135 142.143 65.7786 139.46C65.7786 139.411 63.4165 118.418 65.7786 107.021Z" fill="#1E2454"/>
<path d="M57.8066 148.13C60.2489 145.041 62.9138 142.142 65.779 139.46" stroke="#1E2454" stroke-width="0.952488" stroke-miterlimit="10" stroke-linecap="round"/>
<path d="M129.368 165.178C129.368 165.178 132.73 155.602 124.606 157.872C120.291 159.089 116.3 164.174 106.651 167.486C108.556 174.919 110.623 187.496 106.709 198.786C118.481 196.263 127.082 192.513 129.321 188.226C138.264 171.023 145.284 171.899 151.599 164.204C157.914 156.508 129.368 165.178 129.368 165.178Z" fill="#D1B2B5"/>
<path d="M1.48633 169.688C9.10623 213.847 120.433 205.382 129.386 188.197C138.34 171.013 145.35 171.87 151.665 164.175C157.98 156.479 129.367 165.178 129.367 165.178C129.367 165.178 132.73 155.602 124.605 157.872C116.48 160.142 109.575 175.962 64.5982 168.432C46.9772 165.509 51.53 154.677 61.074 144.214" stroke="#1E2454" stroke-width="0.952488" stroke-miterlimit="10" stroke-linecap="round"/>
<path d="M115.65 58.0198L114.936 57.6497C110.637 63.2234 104.665 67.1966 97.94 68.9569C91.2153 70.7173 84.1112 70.1671 77.7223 67.3913C77.1794 68.268 76.6651 69.1935 76.1603 70.1482C75.688 71.0606 75.4604 72.0846 75.5006 73.1162C75.5409 74.1478 75.8476 75.15 76.3896 76.021C76.9315 76.892 77.6893 77.6006 78.5859 78.0749C79.4826 78.5491 80.486 78.7719 81.4942 78.7208C86.3031 78.4764 91.0428 77.447 95.5339 75.6716C106.164 71.5315 113.917 64.4298 115.65 58.0198Z" fill="#1E2454"/>
<path d="M73.7607 65.2774C77.3153 67.4738 81.2581 68.9324 85.364 69.5698C89.4699 70.2072 93.6583 70.011 97.69 68.9924C101.722 67.9737 105.518 66.1526 108.861 63.6331C112.204 61.1135 115.03 57.945 117.175 54.3084" stroke="#1E2454" stroke-width="0.952488" stroke-miterlimit="10" stroke-linecap="round"/>
<path d="M121.281 23.8662C122.033 38.0695 112.527 46.155 101.726 46.155C90.925 46.155 82.1621 32.3609 82.1621 23.8662C82.1621 15.3715 89.982 6.44818 100.783 6.44818C111.584 6.44818 120.795 15.3812 121.281 23.8662Z" fill="#454545"/>
<path d="M84.9806 16.9884L71.2648 18.6542C71.2648 18.6542 61.3494 29.1264 77.1892 42.2971C84.6948 48.5415 90.1621 25.6487 90.1621 25.6487L84.9806 16.9884Z" fill="#454545"/>
<path d="M72.5043 40.0077C71.4756 41.8196 72.009 46.6807 79.0955 47.1093L80.2575 44.518C79.1241 37.3385 74.3235 36.8027 72.5043 40.0077Z" fill="#D1B2B5"/>
<path d="M79.0955 47.1093C72.009 46.6807 71.4756 41.8196 72.5043 40.0077C74.133 37.1436 78.143 37.2703 79.7813 42.4528" stroke="#1E2454" stroke-width="0.952488" stroke-miterlimit="10" stroke-linecap="round"/>
<path d="M74.7705 41.2838C74.8391 41.1541 74.9356 41.0419 75.0528 40.9558C75.1699 40.8698 75.3046 40.812 75.4468 40.787C75.7436 40.7365 76.0483 40.7879 76.3135 40.9331C76.559 41.0725 76.7655 41.2737 76.9136 41.5176C77.055 41.7532 77.1368 42.021 77.1517 42.2969C76.6564 42.0339 76.3231 41.7612 75.9802 41.5761C75.6105 41.3677 75.1922 41.2666 74.7705 41.2838Z" fill="#1E2454"/>
<path d="M76.0276 46.8367C76.2793 42.1606 75.8491 37.4722 74.7513 32.9257C74.7513 32.9257 71.6081 18.8101 87.3432 17.8067C113.489 16.1604 111.679 38.6343 109.984 46.6711C109.988 46.7067 109.988 46.7427 109.984 46.7783C109.898 47.1582 109.822 47.5186 109.746 47.8206C109.669 48.1226 109.679 48.0349 109.689 47.957C108.641 52.412 106.127 56.3628 102.568 59.146C99.0086 61.9292 94.6217 63.3753 90.1435 63.2416C79.5994 63.1636 75.0751 55.7795 76.0276 46.8367Z" fill="#D1B2B5"/>
<path d="M89.7524 63.2998C94.2238 63.2998 97.8485 59.5926 97.8485 55.0194C97.8485 50.4463 94.2238 46.7391 89.7524 46.7391C85.281 46.7391 81.6562 50.4463 81.6562 55.0194C81.6562 59.5926 85.281 63.2998 89.7524 63.2998Z" fill="#454545"/>
<path d="M116.032 20.5147C109.831 6.82776 93.8767 -0.63432 81.9325 0.057335C72.2838 0.641832 66.1593 11.231 70.6836 19.9789C71.798 22.1513 73.3696 23.7587 75.9509 23.8756C83.1326 24.0996 92.4003 22.3656 98.8868 24.3237C100.774 24.8986 102.43 26.0815 103.607 27.6964C104.785 29.3112 105.421 31.2716 105.421 33.286C105.421 39.2966 104.583 49.7103 98.2772 48.8726C90.4668 47.8984 90.6573 47.5769 83.9232 48.1419C77.1891 48.707 77.0557 50.1682 75.6461 37.7087C75.6461 37.7087 73.9887 32.9937 72.36 32.7502C70.7312 32.5066 72.9505 36.2864 72.9505 36.2864C72.9505 36.2864 74.8555 41.8294 72.56 50.9962C70.2645 60.1631 67.007 78.0974 79.1512 79.393C91.2954 80.6887 104.459 77.5714 107.316 62.1017C109.755 48.892 106.84 45.1902 108.697 41.1669C109.019 41.2001 109.345 41.1602 109.65 41.05L110.812 45.5409C110.812 45.5409 120.689 30.8311 116.032 20.5147Z" fill="#454545"/>
<path d="M70.4941 68.8623C71.0371 74.3371 73.3516 78.789 79.1427 79.4124C91.287 80.7178 104.45 77.5908 107.308 62.1211" stroke="#1E2454" stroke-width="0.952488" stroke-miterlimit="10" stroke-linecap="round"/>
<path d="M73.4365 23.194C74.2036 23.6296 75.0643 23.8639 75.9416 23.8759C83.1233 24.0999 92.391 22.3659 98.8775 24.324" stroke="#1E2454" stroke-width="0.952488" stroke-miterlimit="10" stroke-linecap="round"/>
<path d="M93.792 31.8543C95.8075 31.3452 97.9381 31.6745 99.7165 32.77" stroke="#1E2454" stroke-width="2.85746" stroke-miterlimit="10" stroke-linecap="round"/>
<path d="M82.6339 39.7837C82.6873 39.0055 82.1817 38.3353 81.5048 38.2867C80.8279 38.2382 80.2359 38.8297 80.1825 39.6079C80.1292 40.3861 80.6347 41.0563 81.3116 41.1049C81.9886 41.1534 82.5806 40.5619 82.6339 39.7837Z" fill="#1E2454"/>
<path d="M83.9151 32.6919C83.0867 32.5044 82.2302 32.4862 81.395 32.6383C80.5597 32.7905 79.762 33.11 79.0479 33.5784" stroke="#1E2454" stroke-width="2.85746" stroke-miterlimit="10" stroke-linecap="round"/>
<path d="M80.3043 46.8758C81.5089 46.8758 82.4854 45.877 82.4854 44.645C82.4854 43.4129 81.5089 42.4142 80.3043 42.4142C79.0996 42.4142 78.123 43.4129 78.123 44.645C78.123 45.877 79.0996 46.8758 80.3043 46.8758Z" fill="#D86A61"/>
<path d="M97.5408 39.4295C97.5971 38.6083 97.0642 37.9012 96.3505 37.85C95.6369 37.7988 95.0127 38.423 94.9564 39.2442C94.9001 40.0653 95.433 40.7725 96.1467 40.8236C96.8604 40.8748 97.4845 40.2506 97.5408 39.4295Z" fill="#1E2454"/>
<path d="M99.4215 46.9923C100.689 46.9923 101.717 45.9412 101.717 44.6446C101.717 43.348 100.689 42.2969 99.4215 42.2969C98.1537 42.2969 97.126 43.348 97.126 44.6446C97.126 45.9412 98.1537 46.9923 99.4215 46.9923Z" fill="#D86A61"/>
<path d="M85.5525 45.6873C85.5525 45.6873 85.9526 46.5738 87.9433 45.9795C89.7054 45.4437 90.6484 46.564 89.8483 47.1875C89.3681 47.535 88.8029 47.739 88.2159 47.7769C87.6289 47.8147 87.0431 47.6849 86.5241 47.4018C86.0728 47.0591 85.6883 46.6328 85.3906 46.1451" fill="#1E2454"/>
<path d="M91.7346 50.2268C91.145 50.5935 90.4854 50.8268 89.8003 50.9108C89.1151 50.9948 88.4203 50.9277 87.7627 50.7139" stroke="#1E2454" stroke-width="0.952488" stroke-miterlimit="10" stroke-linecap="round"/>
<path d="M115.737 40.2998C116.642 42.2482 115.661 47.2651 108.279 47.0313L108.231 46.9144C107.78 45.6846 107.664 44.3525 107.895 43.0605C108.127 41.7685 108.697 40.5651 109.546 39.579C111.765 37.163 114.604 37.8255 115.737 40.2998Z" fill="#D1B2B5"/>
<path d="M108.28 47.0313C115.661 47.2651 116.642 42.2774 115.738 40.2999C114.309 37.1826 110.156 36.9293 107.984 42.1508" stroke="#1E2454" stroke-width="0.952488" stroke-miterlimit="10" stroke-linecap="round"/>
<path d="M113.28 41.4594C112.844 41.3918 112.398 41.4526 111.994 41.6347C111.613 41.7906 111.251 42.0536 110.718 42.2874C110.76 42.0038 110.871 41.7357 111.042 41.5081C111.221 41.273 111.453 41.0858 111.718 40.9626C112.005 40.8426 112.322 40.8187 112.623 40.8944C112.768 40.9294 112.903 40.9987 113.017 41.0969C113.131 41.195 113.221 41.3192 113.28 41.4594Z" fill="#1E2454"/>
<path d="M131.016 164.661C129.157 165.326 127.265 165.892 125.349 166.356" stroke="#1E2454" stroke-width="0.952488" stroke-linecap="round" stroke-linejoin="round"/>
<path d="M123.91 209.989C123.91 209.989 119.309 232.882 145.502 245.059C145.502 245.059 115.47 332.733 135.339 492.496" stroke="#7FB3C6" stroke-width="0.952488" stroke-miterlimit="10" stroke-linecap="round"/>
<path d="M118.28 500.903C116.531 500.906 114.799 500.541 113.194 499.831L103.316 495.506L103.393 495.711L76.7705 509.865H151.665C151.665 509.865 151.388 506.728 150.979 501.205L150.874 500.903H118.28Z" fill="#1E2454"/>
<path d="M74.5128 242.682C67.5215 299.31 64.7593 395.937 103.392 495.711L76.7702 509.865" stroke="#7FB3C6" stroke-width="0.952488" stroke-miterlimit="10" stroke-linecap="round"/>
<path d="M147.208 93.8108C138.835 98.4575 133.32 106.377 133.32 115.369C133.32 127.429 143.236 137.56 156.656 140.434C156.556 124.407 153.344 108.559 147.208 93.8108Z" fill="#1E2454"/>
<path d="M116.032 56.1203C116.032 56.1203 144.53 48.2394 192.155 81.848C239.779 115.457 278.355 84.7704 278.355 84.7704C278.355 84.7704 280.05 74.006 288.623 71.5705C297.195 69.1351 298.348 73.6065 298.348 73.6065C298.348 73.6065 318.35 49.7396 318.35 59.9683C318.35 70.197 311.797 74.9022 313.111 79.7145C316.759 93.0898 302.853 129.397 238.579 143.035C200.556 151.072 166.752 139.772 129.643 119.899C121.671 115.632 122.528 67.5278 113.279 62.1796" fill="#595959"/>
<path d="M299.053 72.7495C298.976 72.8337 298.882 72.8995 298.777 72.9423C298.672 72.9851 298.56 73.0039 298.447 72.9974C298.334 72.9909 298.225 72.9593 298.125 72.9047C298.026 72.85 297.939 72.7738 297.872 72.6814C296.986 71.5318 294.624 69.866 288.614 71.5708C280.041 74.0062 278.346 84.7707 278.346 84.7707C278.346 84.7707 278.032 85.024 277.394 85.4429C279.216 91.2879 282.215 96.6776 286.199 101.265C290.182 105.852 295.06 109.535 300.52 112.076C312.217 99.3539 314.941 86.5144 313.074 79.6758C311.759 74.8635 318.312 70.1583 318.312 59.9296C318.351 50.8504 302.596 68.6288 299.053 72.7495Z" fill="#D1B2B5"/>
<path d="M288.614 71.5708C297.187 69.1354 298.349 73.5679 298.349 73.5679C298.349 73.5679 318.351 49.7009 318.351 59.9296C318.351 70.1583 311.798 74.8635 313.112 79.6758C316.76 93.0511 302.854 129.358 238.58 142.996" stroke="#1E2454" stroke-width="0.952488" stroke-linecap="round" stroke-linejoin="round"/>
<path d="M297.386 72.1746C297.386 72.1746 301.386 75.8861 299.005 84.41C296.624 92.9339 292.157 81.3024 292.157 81.3024C292.157 81.3024 294.119 87.1474 291.204 92.3787" stroke="#1E2454" stroke-width="0.952488" stroke-linecap="round" stroke-linejoin="round"/>
<path d="M1 509.866H567.816" stroke="#1E2454" stroke-width="1.90498" stroke-miterlimit="10" stroke-linecap="round"/>
</svg>
