<svg width="239" height="396" viewBox="0 0 239 396" fill="none" xmlns="http://www.w3.org/2000/svg">
<path d="M34.7992 194.827H49.8194C51.4273 194.827 52.9694 195.466 54.1063 196.603C55.2433 197.74 55.882 199.282 55.882 200.89V208.627H28.7441V200.882C28.7461 199.277 29.3847 197.738 30.5198 196.603C31.655 195.468 33.1939 194.829 34.7992 194.827Z" stroke="#1E2454" stroke-width="5.30481" stroke-miterlimit="10" stroke-linecap="round"/>
<path d="M76.6238 202.8H8.02509C4.14524 202.8 1 205.945 1 209.825V253.733C1 257.613 4.14524 260.758 8.02509 260.758H76.6238C80.5037 260.758 83.6489 257.613 83.6489 253.733V209.825C83.6489 205.945 80.5037 202.8 76.6238 202.8Z" fill="#4F5466"/>
<path d="M76.6238 202.8H8.02509C6.16323 202.8 4.37752 203.539 3.06028 204.854C1.74304 206.17 1.00201 207.955 1 209.817V218.706C1.00139 219.527 1.21935 220.332 1.63186 221.042C2.04436 221.751 2.63679 222.339 3.34927 222.746C12.9207 228.285 26.842 231.779 42.3245 231.779C57.8069 231.779 71.7283 228.285 81.2997 222.746C82.0121 222.339 82.6046 221.751 83.0171 221.042C83.4296 220.332 83.6476 219.527 83.6489 218.706V209.817C83.6469 207.955 82.9059 206.17 81.5887 204.854C80.2714 203.539 78.4857 202.8 76.6238 202.8Z" fill="#565F77"/>
<path d="M42.3245 231.779C57.8145 231.779 71.7283 228.285 81.2997 222.746C82.0121 222.339 82.6046 221.751 83.0171 221.042C83.4296 220.332 83.6475 219.527 83.6489 218.706V209.817C83.6469 207.955 82.9059 206.17 81.5887 204.854C80.2714 203.539 78.4857 202.8 76.6238 202.8H8.02509C6.16323 202.8 4.37752 203.539 3.06028 204.854C1.74304 206.17 1.00201 207.955 1 209.817V218.706C1.00139 219.527 1.21935 220.332 1.63186 221.042C2.04436 221.751 2.63679 222.339 3.34927 222.746" stroke="#1E2454" stroke-width="0.75783" stroke-miterlimit="10" stroke-linecap="round"/>
<path d="M76.6238 202.8H8.02509C4.14524 202.8 1 205.945 1 209.825V253.733C1 257.613 4.14524 260.758 8.02509 260.758H76.6238C80.5037 260.758 83.6489 257.613 83.6489 253.733V209.825C83.6489 205.945 80.5037 202.8 76.6238 202.8Z" stroke="#1E2454" stroke-width="0.75783" stroke-miterlimit="10" stroke-linecap="round"/>
<path d="M44.3856 228.126H40.263C38.9949 228.126 37.9668 229.155 37.9668 230.423V235.371C37.9668 236.639 38.9949 237.668 40.263 237.668H44.3856C45.6538 237.668 46.6818 236.639 46.6818 235.371V230.423C46.6818 229.155 45.6538 228.126 44.3856 228.126Z" fill="#9FA7BC"/>
<path d="M44.3856 228.126H40.263C38.9949 228.126 37.9668 229.155 37.9668 230.423V235.371C37.9668 236.639 38.9949 237.668 40.263 237.668H44.3856C45.6538 237.668 46.6818 236.639 46.6818 235.371V230.423C46.6818 229.155 45.6538 228.126 44.3856 228.126Z" stroke="#1E2454" stroke-width="0.75783" stroke-miterlimit="10" stroke-linecap="round"/>
<path d="M89.5674 394.705H235.829" stroke="#1E2454" stroke-width="1.51566" stroke-miterlimit="10" stroke-linecap="round"/>
<path d="M213.776 72.7485C205.955 76.1056 200.854 93.2478 200.854 93.2478L205.886 101.637C205.886 101.637 207.008 103.501 219.255 97.7417C231.501 91.9822 223.408 80.016 223.408 80.016C223.408 80.016 233.888 79.1294 237.617 76.333C241.345 73.5366 221.604 69.3913 213.776 72.7485Z" fill="#91655D"/>
<path d="M200.854 93.2477L182.962 135.118C185.076 73.7336 155.044 68.3833 155.044 68.3833L142.274 109.276C142.274 109.276 136.014 172.176 179.999 175.162C223.983 178.147 219.254 97.7416 219.254 97.7416C209.031 99.083 200.854 93.2477 200.854 93.2477Z" fill="#202020"/>
<path d="M153.362 149.941C157.032 149.941 160.008 138.086 160.008 123.462C160.008 108.839 157.032 96.9839 153.362 96.9839C149.691 96.9839 146.715 108.839 146.715 123.462C146.715 138.086 149.691 149.941 153.362 149.941Z" fill="#1E2454"/>
<path d="M201.385 159.603C196.762 159.975 193.352 160.096 191.184 164.651C190.426 166.295 189.668 167.985 188.964 169.66C188.517 170.675 187.842 173.525 186.971 174.169C185.22 175.465 180.082 171.895 178.218 171.047C172.23 168.34 166.109 165.94 159.878 163.855C158.158 163.279 156.089 162.673 154.104 161.892C154.475 162.37 154.861 162.832 155.263 163.294L156.513 163.734C166.155 166.91 175.576 170.722 184.712 175.147C185.741 175.079 186.766 174.955 187.781 174.775C189.115 171.744 190.426 168.637 191.828 165.613C194.178 160.566 198.058 160.899 202.832 160.414C204.469 160.248 206.189 160.028 207.925 159.74C208.129 159.399 208.334 159.05 208.531 158.702C206.068 159.141 203.658 159.422 201.385 159.603Z" fill="#DA2B74"/>
<path d="M51.2593 166.947L28.153 162.476C28.153 162.476 23.8031 185.521 31.2526 190.925C38.702 196.328 37.0348 201.716 41.8622 200.981C46.6896 200.246 47.455 184.96 50.994 184.779C54.5331 184.597 58.2616 188.318 59.1937 183.657C60.1259 178.996 57.2916 168.099 51.2593 166.947Z" fill="#91655D"/>
<path d="M31.2524 190.909C38.7095 196.312 37.0347 201.701 41.8621 200.965C46.6894 200.23 47.4548 184.945 50.9939 184.763C54.533 184.581 58.2615 188.302 59.1936 183.641C60.1258 178.981 57.2763 168.098 51.244 166.969" stroke="#1E2454" stroke-width="0.75783" stroke-miterlimit="10" stroke-linecap="round"/>
<path d="M176.998 386.111L180.726 365.733L159.939 363.709L157.12 394.705H191.161L176.998 386.111Z" fill="#1E2454"/>
<path d="M35.8142 298.945L12.3897 309.062C11.7361 309.346 11.1488 309.763 10.665 310.286C10.1813 310.809 9.81188 311.427 9.58018 312.1C9.34848 312.774 9.25963 313.489 9.31929 314.199C9.37896 314.909 9.58583 315.598 9.92673 316.224L21.5897 337.648C21.7073 337.866 21.8933 338.039 22.119 338.141C22.3446 338.242 22.5975 338.267 22.8387 338.211C23.0798 338.155 23.2959 338.021 23.4536 337.831C23.6114 337.64 23.702 337.402 23.7117 337.155L24.0754 329.327C24.1414 327.948 24.6245 326.621 25.4607 325.522C26.297 324.423 27.447 323.604 28.7588 323.173L43.976 318.171L35.8142 298.945Z" fill="#1E2454"/>
<path d="M157.142 140.362L134.779 135.118C134.779 135.118 108.876 163.802 107.216 188.924C105.314 217.661 152.565 244.692 165.729 251.649C166.723 252.178 167.54 252.987 168.079 253.976C168.618 254.964 168.855 256.09 168.76 257.212L159.385 370.348L202.938 371.341C204.061 371.373 205.178 371.177 206.223 370.766C207.269 370.355 208.22 369.737 209.021 368.95C209.821 368.162 210.454 367.221 210.882 366.182C211.309 365.143 211.523 364.029 211.509 362.906C209.933 182.103 157.142 140.362 157.142 140.362Z" fill="#DA2B74"/>
<path d="M182.5 180.845C169.541 150.168 157.143 140.362 157.143 140.362" stroke="#1E2454" stroke-width="0.75783" stroke-miterlimit="10" stroke-linecap="round"/>
<path d="M140.842 149.941L125.936 151.911C120.768 158.618 113.189 169.516 108.407 181.277C107.802 183.766 107.404 186.301 107.218 188.855C105.285 218.146 154.408 245.693 166.45 251.952C165.768 209.431 140.842 149.941 140.842 149.941Z" fill="#1E2454"/>
<path d="M146.723 144.212L113.303 141.256C113.303 141.256 58.777 195.229 124.147 247.277C124.535 247.587 124.838 247.99 125.028 248.449C125.218 248.908 125.29 249.407 125.235 249.901C125.181 250.395 125.002 250.867 124.717 251.273C124.431 251.679 124.048 252.007 123.602 252.225L27.3574 302.242L54.7833 343.923C56.107 345.939 58.1701 347.354 60.5277 347.863C62.8853 348.372 65.3484 347.934 67.386 346.643C85.5739 335.132 139.774 296.922 153.203 267.382C170.155 230.089 146.723 144.212 146.723 144.212Z" fill="#DA2B74"/>
<path d="M115.751 150.464C114.175 152.228 112.724 154.099 111.408 156.064C110.066 158.033 108.839 160.077 107.733 162.188C105.494 166.395 103.759 170.851 102.564 175.465C101.363 180.076 100.772 184.825 100.806 189.591C100.865 194.358 101.537 199.098 102.807 203.694C104.124 208.287 105.951 212.717 108.256 216.903L110.052 220.01C110.643 221.041 111.37 222.003 112.022 223.041C113.303 225.065 114.826 226.914 116.289 228.816C122.275 236.303 129.46 242.79 137.046 248.671C137.122 248.731 137.172 248.818 137.185 248.915C137.198 249.011 137.172 249.109 137.114 249.186C137.089 249.22 137.059 249.248 137.023 249.27L132.271 252.301L132.392 251.854L134.59 256.401C134.627 256.481 134.633 256.572 134.604 256.655C134.576 256.738 134.517 256.807 134.439 256.848C134.39 256.869 134.339 256.881 134.287 256.886H130.634L130.778 256.848L36.2314 306.387L130.468 256.219C130.512 256.196 130.561 256.183 130.612 256.181H134.264L133.969 256.659L131.741 252.157C131.704 252.08 131.697 251.993 131.719 251.911C131.741 251.829 131.792 251.758 131.862 251.71L136.598 248.626V249.224C128.937 243.374 121.669 236.894 115.561 229.377C114.045 227.467 112.53 225.588 111.211 223.564C110.544 222.556 109.809 221.586 109.195 220.533L107.354 217.395C104.982 213.154 103.094 208.659 101.723 203.997C100.395 199.309 99.6767 194.47 99.586 189.598C99.5127 184.722 100.084 179.858 101.284 175.131C102.471 170.396 104.214 165.817 106.475 161.49C107.593 159.328 108.833 157.23 110.188 155.208C111.539 153.164 113.03 151.217 114.652 149.38C114.719 149.306 114.8 149.245 114.89 149.202C114.98 149.159 115.079 149.134 115.179 149.129C115.279 149.124 115.379 149.139 115.473 149.173C115.567 149.207 115.654 149.259 115.728 149.327C115.876 149.462 115.965 149.65 115.975 149.85C115.985 150.051 115.915 150.247 115.781 150.396L115.751 150.464Z" fill="#FF9E1F"/>
<path d="M146.723 144.212L113.303 141.256C109.994 144.729 107.025 148.51 104.436 152.548C108.497 153.262 112.612 153.62 116.736 153.617C128.671 153.617 139.47 150.714 147.193 146.038C146.897 144.826 146.723 144.212 146.723 144.212Z" fill="#1E2454"/>
<path d="M145.685 67.2768C142.374 69.4622 138.423 70.4656 134.471 70.1245C130.52 69.7833 126.799 68.1177 123.912 65.3974C123.37 64.9078 122.665 64.6377 121.934 64.6396C114.629 64.5183 101.518 65.6323 100.806 75.1128C99.8358 87.7685 121.055 119.901 109.566 140.135C109.411 140.422 109.319 140.74 109.297 141.067C109.276 141.393 109.325 141.721 109.441 142.027C109.558 142.332 109.739 142.609 109.973 142.839C110.206 143.068 110.486 143.244 110.794 143.355C118.547 145.993 141.6 152.366 158.787 141.961C159.072 141.786 159.314 141.55 159.497 141.271C159.68 140.992 159.8 140.676 159.847 140.345C159.894 140.014 159.867 139.677 159.769 139.358C159.671 139.039 159.504 138.745 159.28 138.498C155.438 134.39 149.011 121.265 162.433 83.2822C165.881 73.5213 162.887 69.2093 147.799 66.8449C147.065 66.718 146.31 66.8722 145.685 67.2768Z" fill="#202020"/>
<path d="M112.18 117.013C115.075 114.308 116.803 110.951 116.803 107.358C116.803 101.425 112.196 96.2486 105.314 93.4067C107.861 100.689 110.786 108.927 112.18 117.013Z" fill="#1E2454"/>
<path d="M155.568 36.3303C158.639 23.1951 149.116 9.73819 134.298 6.27348C119.48 2.80877 104.977 10.6483 101.906 23.7835C98.8349 36.9187 108.358 50.3756 123.176 53.8403C137.995 57.305 152.497 49.4655 155.568 36.3303Z" fill="#1E2454"/>
<path d="M147.866 45.9515C148.518 47.0655 148.185 50.0514 143.728 50.309L143.031 48.7252C143.713 44.3146 146.722 43.9812 147.866 45.9515Z" fill="#91655D"/>
<path d="M143.729 50.3091C148.185 50.0514 148.519 47.0656 147.867 45.9516C146.844 44.1934 144.328 44.2692 143.32 47.4672" stroke="#1E2454" stroke-width="0.75783" stroke-miterlimit="10" stroke-linecap="round"/>
<path d="M145.867 48.4902C146.975 48.6531 147.986 49.2134 148.712 50.0667C149.437 50.92 149.828 52.0081 149.81 53.128C149.793 54.248 149.369 55.3234 148.617 56.1537C147.866 56.9841 146.837 57.5127 145.725 57.6411C144.612 57.7695 143.491 57.4889 142.57 56.8515C141.649 56.2142 140.991 55.2636 140.719 54.1771C140.447 53.0905 140.579 51.9421 141.091 50.946C141.604 49.9499 142.46 49.174 143.502 48.7631" stroke="#202020" stroke-width="0.75783" stroke-miterlimit="10" stroke-linecap="round"/>
<path d="M146.449 46.7321C146.182 46.7547 145.924 46.8348 145.691 46.967C145.449 47.117 145.195 47.2488 144.933 47.3611C144.921 47.1796 144.962 46.9986 145.051 46.8398C145.14 46.6811 145.272 46.5515 145.433 46.4669C145.608 46.3751 145.808 46.3457 146.002 46.3835C146.099 46.4002 146.191 46.4407 146.269 46.5015C146.347 46.5624 146.409 46.6416 146.449 46.7321Z" fill="#1E2454"/>
<path d="M145.654 50.1501C145.497 47.2766 145.767 44.3957 146.457 41.6017C146.457 41.6017 148.435 32.9246 138.545 32.3183C122.123 31.2953 123.252 45.1105 124.321 50.0515C124.321 50.0515 124.321 50.0894 124.321 50.1122C124.374 50.3471 124.427 50.5669 124.472 50.7563C124.518 50.9458 124.51 50.8776 124.51 50.8321C125.259 53.6752 126.919 56.1944 129.237 58.0039C131.554 59.8134 134.4 60.8133 137.34 60.8506C143.949 60.8506 146.245 55.6443 145.654 50.1501Z" fill="#91655D"/>
<path d="M123.837 40.0178L123.45 47.9675C124.491 46.4224 125.369 44.7742 126.072 43.0491C126.747 41.0788 123.837 40.0178 123.837 40.0178Z" fill="#1E2454"/>
<path d="M142.16 33.5232C142.16 33.5232 138.219 39.116 133.006 39.6389C127.792 40.1618 134.044 35.198 134.044 35.198C134.044 35.198 126.382 38.2293 125.389 46.0274C124.397 53.8255 117.47 43.7539 121.524 35.4178C125.579 27.0817 144.472 25.6569 147.291 33.5914C150.11 41.5259 145.775 45.118 145.775 45.118C145.775 45.118 147.579 36.9789 142.16 33.5232Z" fill="#1E2454"/>
<path d="M134.491 40.9424C133.864 40.7873 133.213 40.7578 132.574 40.8553C131.936 40.9528 131.323 41.1756 130.771 41.5108" stroke="#1E2454" stroke-width="0.75783" stroke-miterlimit="10" stroke-linecap="round"/>
<path d="M139.303 42.3747L138.993 45.1104C138.898 45.5585 138.867 46.0178 138.902 46.4745C138.978 46.929 139.168 47.3566 139.455 47.7174C139.589 47.8969 139.736 48.0666 139.894 48.2251C140.1 48.4203 140.256 48.662 140.349 48.9299C140.398 49.0891 140.414 49.2566 140.396 49.4221C140.377 49.5876 140.325 49.7476 140.243 49.8923C140.1 50.1487 139.901 50.3691 139.659 50.5365C139.216 50.8415 138.681 50.9859 138.144 50.9457C137.88 50.939 137.623 50.8661 137.395 50.7337C137.167 50.6012 136.976 50.4135 136.84 50.1879C136.84 50.1879 136.84 50.1879 136.84 50.1348C136.84 50.0818 136.84 50.1348 136.878 50.1348C137.247 50.3622 137.688 50.4433 138.114 50.3622C138.51 50.3038 138.884 50.1417 139.197 49.8923C139.515 49.6422 139.72 49.3846 139.667 49.1345C139.621 48.9521 139.541 48.78 139.432 48.6268C139.299 48.4144 139.19 48.1883 139.106 47.9523C138.909 47.49 138.826 47.0126 138.682 46.5579C138.535 46.0884 138.431 45.6064 138.371 45.118C138.339 44.1296 138.65 43.1604 139.25 42.3747H139.303C139.303 42.3595 139.303 42.3747 139.303 42.3747Z" fill="#1E2454"/>
<path d="M142.335 46.621C142.761 46.5911 143.079 46.1811 143.046 45.7051C143.013 45.2292 142.64 44.8675 142.214 44.8974C141.789 44.9272 141.47 45.3373 141.504 45.8132C141.537 46.2892 141.909 46.6508 142.335 46.621Z" fill="#1E2454"/>
<path d="M140.697 41.4351C141.74 41.2137 142.828 41.4095 143.729 41.9808" stroke="#1E2454" stroke-width="0.75783" stroke-miterlimit="10" stroke-linecap="round"/>
<path d="M142.972 50.7109C143.73 50.7109 144.344 50.0968 144.344 49.3392C144.344 48.5816 143.73 47.9675 142.972 47.9675C142.215 47.9675 141.601 48.5816 141.601 49.3392C141.601 50.0968 142.215 50.7109 142.972 50.7109Z" fill="#AA7771"/>
<path d="M133.009 46.4553C133.46 46.4237 133.797 45.9886 133.761 45.4834C133.726 44.9782 133.332 44.5943 132.881 44.6259C132.43 44.6575 132.093 45.0926 132.129 45.5978C132.164 46.103 132.558 46.4869 133.009 46.4553Z" fill="#1E2454"/>
<path d="M130.611 50.2484C131.41 50.2484 132.058 49.6004 132.058 48.801C132.058 48.0016 131.41 47.3535 130.611 47.3535C129.812 47.3535 129.164 48.0016 129.164 48.801C129.164 49.6004 129.812 50.2484 130.611 50.2484Z" fill="#AA7771"/>
<path d="M139.675 49.3618C139.675 49.3618 139.432 49.9832 138.159 49.6195C137.052 49.2936 136.461 49.9832 136.946 50.3773C137.248 50.5894 137.602 50.7137 137.97 50.7365C138.338 50.7592 138.705 50.6795 139.03 50.5061C139.315 50.3018 139.556 50.0445 139.743 49.7483" fill="#1E2454"/>
<path d="M135.28 52.1128C135.791 52.4222 136.363 52.6175 136.957 52.6856C137.551 52.7536 138.152 52.6926 138.72 52.5069" stroke="#1E2454" stroke-width="0.75783" stroke-miterlimit="10" stroke-linecap="round"/>
<path d="M120.706 46.1333C120.137 47.3459 120.751 50.4151 125.389 50.2711L126.003 48.5508C124.844 44.0493 121.706 43.9887 120.706 46.1333Z" fill="#91655D"/>
<path d="M125.389 50.2408C120.751 50.3848 120.137 47.3156 120.706 46.1031C121.6 44.1858 124.215 44.0342 125.579 47.2398" stroke="#1E2454" stroke-width="0.75783" stroke-miterlimit="10" stroke-linecap="round"/>
<path d="M122.244 46.808C122.277 46.7148 122.333 46.6309 122.405 46.5636C122.478 46.4963 122.565 46.4476 122.661 46.4215C122.852 46.3533 123.061 46.3533 123.252 46.4215C123.425 46.4945 123.574 46.6152 123.681 46.7694C123.789 46.9237 123.85 47.1053 123.858 47.293C123.577 47.1934 123.302 47.0796 123.032 46.952C122.785 46.8421 122.515 46.7927 122.244 46.808Z" fill="#1E2454"/>
<path d="M123.897 48.907C125.012 49.0659 126.031 49.6249 126.764 50.4798C127.497 51.3347 127.894 52.427 127.88 53.553C127.867 54.679 127.445 55.7618 126.692 56.5992C125.939 57.4366 124.907 57.9715 123.789 58.1042C122.671 58.2368 121.543 57.958 120.615 57.3199C119.687 56.6818 119.023 55.7279 118.747 54.6362C118.47 53.5445 118.601 52.3897 119.114 51.387C119.626 50.3844 120.486 49.6026 121.533 49.1874" stroke="#202020" stroke-width="0.75783" stroke-miterlimit="10" stroke-linecap="round"/>
<path d="M110.794 143.356C118.555 145.993 141.6 152.359 158.78 141.969" stroke="#1E2454" stroke-width="0.75783" stroke-miterlimit="10" stroke-linecap="round"/>
<path d="M127.875 90.6408L113.241 65.1853C113.241 65.1853 44.5518 72.7636 28.1523 162.46L29.7286 163.309C35.2985 166.307 41.6088 167.65 47.9165 167.182L51.2813 166.932L76.6155 121.985C77.0856 121.154 77.7266 120.433 78.496 119.869C79.2655 119.304 80.1459 118.91 81.0792 118.711C92.2117 116.354 130.611 116.225 127.875 90.6408Z" fill="#202020"/>
<path d="M209.055 85.0103C209.055 85.0103 211.419 79.9101 216.633 79.7054C221.847 79.5008 223.59 87.1549 220.733 86.5259C217.876 85.8969 217.004 84.9117 217.004 84.9117C217.004 84.9117 219.967 86.6017 218.74 90.9744" stroke="#1E2454" stroke-width="0.75783" stroke-linecap="round" stroke-linejoin="round"/>
<path d="M44.2029 140.817C48.798 145.278 53.93 149.149 59.4808 152.343L59.9355 151.54C58.925 150.979 57.9146 150.388 56.9042 149.767C51.4266 146.166 46.3727 141.959 41.8385 137.225C40.1107 135.474 38.4358 133.671 36.7232 131.92C36.6019 132.238 36.4731 132.557 36.3442 132.875C38.9739 135.527 41.4823 138.263 44.2029 140.817Z" fill="#DA2B74"/>
<path d="M192.837 133.435C194.125 135.983 194.841 138.782 194.936 141.635C192.45 141.976 189.904 141.438 187.289 141.309C181.431 141.021 174.527 142.961 169.45 145.856C165.706 147.993 168.624 151.267 171.185 153.275C173.132 154.816 175.424 155.86 177.864 156.316C180.304 156.773 182.818 156.628 185.19 155.896C187.561 155.163 189.719 153.864 191.477 152.111C193.234 150.358 194.538 148.203 195.277 145.834C195.624 144.722 195.832 143.571 195.898 142.408C197.5 142.001 198.998 141.26 200.294 140.233C202.867 141.803 205.564 143.161 208.357 144.295C210.124 145.092 211.978 145.679 213.881 146.046L214.185 145.061C213.155 144.934 212.14 144.708 211.153 144.386C207.577 143.237 204.156 141.651 200.968 139.665C202.347 138.406 203.464 136.889 204.256 135.198C205.048 133.508 205.499 131.678 205.583 129.813C205.901 121.848 199.111 115.998 191.866 114.3L191.503 115.157H191.745C192.779 115.293 193.78 115.614 194.701 116.104C201.135 118.741 206.106 125.365 204.242 132.526C203.577 135.087 202.166 137.392 200.187 139.15C197.725 137.544 195.55 135.535 193.753 133.208C193.155 131.943 192.473 130.7 191.745 129.487C191.488 129.04 191.222 128.593 190.987 128.146C190.265 126.293 189.796 124.35 189.593 122.371C189.532 121.742 189.457 120.924 189.426 120.098L188.706 121.788C188.776 122.821 188.915 123.849 189.123 124.864C188.797 124.266 188.471 123.659 188.161 123.053L187.721 124.091C188.532 125.607 189.388 127.176 190.267 128.699C190.931 130.375 191.793 131.965 192.837 133.435ZM193.208 148.312C191.79 150.957 189.562 153.077 186.851 154.362C184.139 155.647 181.087 156.028 178.142 155.45C175.508 154.947 173.059 153.74 171.056 151.957C169.488 150.517 168.313 148.774 169.92 146.652C170.678 145.69 174.057 144.932 175.308 144.477C178.317 143.28 181.486 142.532 184.713 142.257C187.698 142.075 190.608 142.848 193.579 142.749C194.031 142.73 194.482 142.685 194.928 142.613C194.784 144.616 194.197 146.563 193.208 148.312ZM196.717 137.657C197.602 138.397 198.528 139.088 199.49 139.725C199.148 139.985 198.791 140.226 198.422 140.445C197.644 140.906 196.801 141.246 195.921 141.453C195.876 139.549 195.52 137.665 194.867 135.876C195.45 136.504 196.067 137.099 196.717 137.657Z" fill="#DA2B74"/>
<path d="M197.467 101.182C199.921 101.762 202.299 102.626 204.553 103.759C207.674 105.211 210.546 107.147 213.063 109.496C213.094 109.517 213.122 109.542 213.146 109.571C212.51 109.662 211.858 109.738 211.199 109.784C206.315 110.067 201.448 108.997 197.133 106.692C196.762 106.495 196.156 106.176 195.504 105.782L195.034 106.873C197.428 108.171 199.973 109.167 202.612 109.837C206.324 110.803 210.197 110.979 213.98 110.352C215.937 112.332 217.622 114.565 218.989 116.991C219.027 116.437 219.065 115.899 219.095 115.361C217.925 113.499 216.572 111.757 215.056 110.162L215.92 109.996C217.055 109.73 218.203 109.527 219.361 109.389V108.548C217.693 108.723 216.011 109.094 214.268 109.397C211.299 106.468 207.805 104.123 203.969 102.486C201.996 101.576 199.933 100.872 197.815 100.386L197.467 101.182Z" fill="#DA2B74"/>
<path d="M46.03 119.59C46.5308 119.965 47.0576 120.305 47.6063 120.606C48.599 124.887 51.0999 128.722 54.2297 132.079C52.9762 133.124 51.9957 134.458 51.3727 135.967C48.8946 141.885 54.6996 148.175 60.1105 151.207L60.6182 150.305C58.7991 149.104 57.1056 147.723 55.5635 146.182C53.1233 143.825 50.9331 140.877 51.9032 137.263C52.43 135.5 53.4888 133.944 54.9345 132.807C57.1311 135.016 59.5033 137.044 62.0278 138.869C63.2176 139.741 64.4301 140.59 65.6426 141.438L66.0973 140.635C62.3607 138.163 58.8439 135.374 55.5862 132.299C55.9882 132.007 56.4084 131.741 56.8442 131.503C60.9516 129.321 66.8097 129.737 71.4552 131.109L71.9023 130.313C66.5975 128.836 59.4739 128.351 54.889 131.579L54.7981 131.488C51.9665 128.599 49.885 125.06 48.7354 121.181C50.7005 122.069 52.7527 122.75 54.8587 123.212C59.724 124.387 64.6499 125.35 69.5454 126.411C69.6145 126.429 69.6868 126.431 69.757 126.418C69.8271 126.404 69.8932 126.374 69.9502 126.331C70.0072 126.288 70.0536 126.233 70.0859 126.169C70.1182 126.105 70.1355 126.035 70.1366 125.963C69.9319 122.682 67.6206 120.719 64.8772 119.204C59.6406 116.316 53.8887 114.119 48.4551 111.625C48.3932 111.59 48.3243 111.57 48.2534 111.566C48.1826 111.561 48.1117 111.573 48.0461 111.6C47.9805 111.627 47.9218 111.669 47.8745 111.722C47.8272 111.774 47.7925 111.837 47.773 111.906C47.1256 114.309 46.9888 116.82 47.3713 119.279C46.1394 118.504 45.0478 117.525 44.143 116.384C43.9763 116.672 43.8095 116.953 43.6504 117.248C44.3434 118.125 45.1428 118.911 46.03 119.59ZM49.2962 113.058C49.6524 112.989 51.4561 114.043 51.9562 114.27L55.95 116.096C58.8979 117.438 67.5599 119.886 68.5754 123.599C69.3333 126.441 64.4149 124.357 62.8841 124.031C60.6713 123.546 58.4432 123.091 56.2304 122.583C53.5156 122.049 50.8851 121.152 48.4096 119.916C48.3414 119.613 48.2883 119.31 48.2429 118.999C48.0231 117.415 47.3183 113.414 49.3114 113.058H49.2962Z" fill="#DA2B74"/>
<path d="M52.092 165.431L52.5695 164.582C48.2717 163.673 44.2542 161.747 40.8534 158.967C38.9989 157.352 37.3176 155.549 35.8366 153.586C41.7918 154.706 47.8593 155.113 53.9108 154.799C55.2749 154.73 56.7451 154.64 58.2532 154.503L58.8443 153.45L57.9046 153.556C50.2598 154.354 42.5383 153.988 35.003 152.472C33.7713 150.754 32.6499 148.959 31.6458 147.099L31.3957 148.024C32.0095 149.085 32.6461 150.115 33.2751 151.123C33.5176 151.51 33.7601 151.881 34.033 152.26C32.8583 152.017 31.6912 151.729 30.5318 151.434C30.456 151.729 30.3878 152.033 30.312 152.336C31.8277 152.722 33.2903 153.094 34.7984 153.382C37.8297 157.656 41.4521 161.286 46.3401 163.476C48.195 164.299 50.12 164.953 52.092 165.431Z" fill="#DA2B74"/>
<path d="M75.4783 123.978L75.8572 123.303C69.7264 115.793 58.6545 110.648 53.236 102.569L52.7358 103.236C58.6318 111.292 69.7188 116.172 75.4783 123.978Z" fill="#DA2B74"/>
<path d="M162.22 134.913C165.216 134.737 168.201 134.514 171.177 134.246C171.258 134.245 171.337 134.222 171.407 134.181C171.477 134.14 171.534 134.081 171.575 134.011C171.615 133.941 171.637 133.862 171.638 133.781C171.638 133.7 171.618 133.62 171.579 133.549C171.188 132.699 170.745 131.874 170.253 131.079C170.804 130.514 171.233 129.842 171.512 129.104C171.791 128.365 171.914 127.578 171.874 126.789C171.783 124.167 170.359 123.091 168.373 122.788C174.042 121.106 179.415 118.4 182.295 113.974C182.242 113.444 182.181 112.914 182.12 112.391C179.006 118.453 171.23 121.485 163.932 123C163.546 123.061 163.175 123.137 162.788 123.205C159.963 121.243 156.886 119.67 153.641 118.529C156.301 117.817 158.779 116.703 160.628 114.482C161.354 113.595 161.965 112.62 162.447 111.58C164.718 111.039 166.863 110.061 168.76 108.7C173.761 105.047 174.527 99.3408 175.277 93.6722C175.977 93.1508 176.631 92.5702 177.232 91.9368L176.846 90.9743C176.416 91.4538 175.952 91.902 175.459 92.3157C175.611 91.2017 175.785 90.0953 175.997 89.0116C175.739 88.4356 175.474 87.8748 175.239 87.3368C175.239 87.4504 175.186 87.5641 175.163 87.6778C173.036 89.355 170.53 90.4868 167.865 90.9743C168.002 90.406 168.131 89.8376 168.267 89.2692C168.901 86.2317 169.84 83.2661 171.071 80.4178L170.457 79.5917C170.109 80.2965 169.79 81.024 169.495 81.7667C168.328 84.8419 167.375 87.9945 166.645 91.2017C162.93 91.7264 159.165 91.8103 155.429 91.4518L152.459 91.2244C150.989 90.4666 149.541 89.7088 148.109 88.9509C144.783 87.3453 141.585 85.4856 138.545 83.3885C142.986 83.5779 147.434 83.9947 151.845 83.4567C155.073 83.055 160.325 82.3957 160.264 78.258C160.204 73.8019 155.793 71.8012 152.178 70.5963C149.587 69.7273 146.982 68.8861 144.365 68.0727C144.009 68.2622 143.653 68.4441 143.289 68.6108C147.457 69.6945 152.216 70.9676 155.755 73.0592C158.112 74.4536 161.28 78.0458 157.877 80.827C156.93 81.5848 154.74 82.0092 153.489 82.2669C151.144 82.682 148.761 82.8446 146.381 82.7519C143.35 82.7064 140.356 82.517 137.355 82.4412C136.519 81.7479 135.741 80.9876 135.029 80.1677C133.142 77.97 131.922 75.166 132.596 72.2256C132.76 71.4395 133.066 70.6897 133.498 70.0128C133.164 69.9673 132.839 69.9143 132.513 69.8536C131.68 71.4052 131.336 73.1728 131.528 74.9235C131.861 77.9548 133.695 80.4178 135.968 82.4184C134.347 82.4184 132.725 82.4185 131.088 82.5549C125.867 82.9565 120.66 83.7219 115.462 82.6155L114.992 82.4942C114.802 82.0395 114.605 81.6 114.416 81.1756C112.396 76.4246 109.217 72.2557 105.17 69.0503C104.452 68.4876 103.692 67.9809 102.897 67.5347L101.813 67.8757C103.435 68.7071 104.918 69.786 106.208 71.0737C109.539 74.1615 112.154 77.9404 113.87 82.1456C109.306 80.866 105.137 78.4609 101.745 75.1508C101.055 74.484 97.8799 71.2859 97.9557 69.2322L96.8189 69.6566C97.1069 71.9831 99.8502 74.5901 101.108 75.8102C104.748 79.3626 109.251 81.9041 114.173 83.1839L114.37 83.2293L114.499 83.5324C116.272 88.1173 117.841 93.7783 117.705 98.7269C117.53 105.062 110.884 108.336 105.223 108.003C104.517 107.959 103.816 107.863 103.124 107.715C103.986 105.913 104.549 103.983 104.791 102.001C105.663 95.2788 103.344 88.2386 99.8502 82.5776C99.7858 82.4735 99.6838 82.3981 99.5653 82.367C99.4468 82.336 99.3209 82.3517 99.2137 82.4109C92.3932 86.3667 89.612 95.8775 93.9089 102.69C95.7368 105.473 98.5224 107.487 101.737 108.351C101.199 109.196 100.546 109.961 99.7972 110.625C94.1135 115.604 88.3843 109.534 84.1783 105.949C83.6251 105.472 83.0567 105.032 82.4884 104.608C83.6804 103.05 84.3869 101.176 84.5194 99.2195C85.0953 92.0505 78.972 86.3364 73.3489 83.0247L73.0685 82.8656L72.2728 83.4794L72.4016 83.5552C77.9717 86.7532 85.0347 92.8689 83.4584 100.152C83.1644 101.563 82.5642 102.893 81.7002 104.047C78.7147 101.968 75.3767 100.448 71.8484 99.5605C71.7501 99.5319 71.645 99.5372 71.5501 99.5757C71.4552 99.6142 71.3761 99.6836 71.3255 99.7727C69.4916 103.395 67.6627 107.02 65.8389 110.648C65.7952 110.727 65.7756 110.818 65.7826 110.909C65.7896 111 65.8228 111.087 65.8782 111.159C65.9336 111.231 66.0088 111.286 66.0946 111.316C66.1805 111.346 66.2733 111.351 66.3617 111.33C71.4771 110.632 78.2673 109.299 81.9427 105.267C82.9961 106.116 83.9585 106.965 84.7618 107.692C88.3994 110.936 92.9995 115.02 98.2133 112.747C100.113 111.861 101.676 110.386 102.669 108.541C104.627 109.005 106.659 109.064 108.64 108.713C110.621 108.363 112.509 107.61 114.188 106.502C121.342 101.538 118.5 90.7925 115.507 83.4567C121.153 84.5707 126.837 83.6537 132.543 83.2975C134.059 83.199 135.612 83.199 137.151 83.2445C138.308 84.1771 139.512 85.0498 140.758 85.859C143.623 87.6475 146.639 89.4284 149.738 91.0425C142.736 90.6106 135.446 90.5348 128.777 92.2248C123.639 93.5282 119.993 98.2268 124.025 103.001C129.012 108.897 139.614 110.67 146.76 111.686C151.307 112.338 156.506 112.77 161.265 111.837C160.859 112.583 160.379 113.287 159.832 113.937C157.802 116.301 155.005 117.339 152.065 117.983C148.279 116.778 144.382 115.953 140.432 115.52C132.796 114.646 125.067 115.061 117.568 116.748C116.219 117.051 114.302 117.385 112.339 117.9C112.4 118.287 112.453 118.658 112.506 119.06C113.835 118.65 115.166 118.281 116.5 117.953C125.16 115.82 134.157 115.426 142.971 116.794C145.384 117.17 147.773 117.688 150.125 118.347C149.086 118.529 148.056 118.681 147.048 118.847C137.924 120.363 128.754 121.555 119.539 122.424C117.402 122.629 115.272 122.818 113.135 122.993H112.908C112.908 123.296 112.908 123.599 112.961 123.902C120.66 123.281 128.337 122.47 135.991 121.424C141.084 120.727 146.222 120.022 151.269 119.044L151.989 118.893C155.361 119.974 158.573 121.504 161.538 123.44H161.485C159.916 123.713 158.4 123.925 156.983 124.099C156.87 124.114 156.765 124.169 156.69 124.255C156.614 124.34 156.573 124.451 156.573 124.565C156.573 124.679 156.614 124.79 156.69 124.876C156.765 124.961 156.87 125.017 156.983 125.031C159.067 125.221 160.772 124.683 162.629 124.182L162.887 124.372C164.582 125.612 166.124 127.049 167.479 128.654C167.706 128.926 168.419 129.722 169.078 130.586C168.453 131.207 167.753 131.747 166.994 132.193C165.42 133.051 163.749 133.715 162.015 134.171C159.81 134.216 157.877 134.171 157.316 134.216C147.319 134.619 137.306 134.442 127.329 133.686C124.899 133.504 122.469 133.287 120.039 133.034C118.175 132.837 114.431 131.571 112.771 132.17C112.642 132.215 112.529 132.276 112.407 132.329C112.286 132.935 112.15 133.526 111.998 134.118C114.939 132.829 118.258 133.792 121.494 134.118C124.899 134.451 128.304 134.719 131.709 134.921C140.388 135.422 149.086 135.488 157.771 135.118C155.081 135.603 152.36 135.952 149.92 136.444C137.795 138.892 124.502 143.143 112.097 140.877C111.225 140.718 110.369 140.514 109.513 140.279C109.384 140.541 109.312 140.828 109.3 141.12C115.022 142.636 121.047 142.56 127.041 141.764C137.014 140.438 146.881 137.975 156.725 136.012C158.188 135.739 160.143 135.413 162.22 134.913ZM66.9453 110.375C68.2942 107.306 70.5829 100.849 73.3717 101.023C75.9104 101.182 78.6765 102.895 81.1167 104.752C77.7974 108.488 71.8484 109.67 66.9453 110.375ZM102.162 107.54C92.8252 104.873 89.377 92.7628 96.7583 85.3816C97.7056 84.4343 98.274 83.4491 99.6229 84.1539C100.381 84.5707 101.578 88.0643 101.752 88.4962C102.876 91.3501 103.578 94.3523 103.836 97.4083C104.109 100.697 103.746 104.486 102.162 107.54ZM167.547 92.1869L168.085 92.0959C170.558 91.577 172.877 90.4928 174.86 88.9282C174.587 90.3681 174.375 91.8383 174.201 93.2402C171.98 94.6801 169.405 95.4798 166.759 95.5516C167.017 94.4301 167.282 93.3085 167.547 92.1869ZM174.057 94.4604C173.777 96.8778 173.58 98.9316 173.299 99.9319C171.783 105.782 167.812 108.874 162.947 110.314C163.589 108.597 164.111 106.837 164.508 105.047C165.198 102.19 165.857 99.3256 166.517 96.461C169.163 96.4998 171.77 95.816 174.057 94.4831V94.4604ZM166.365 92.3687C166.122 93.4221 165.888 94.4755 165.668 95.5289C164.705 95.5019 163.747 95.3929 162.803 95.203C159.978 94.5713 157.242 93.5939 154.657 92.293C158.537 92.634 162.5 92.9371 166.365 92.3915V92.3687ZM142.054 109.875C136.325 108.639 128.708 107.063 124.783 102.342C121.623 98.5526 124.025 94.6498 128.125 93.3539C130.876 92.4749 133.862 92.3915 136.719 92.1641C141.763 91.7864 146.828 91.7636 151.875 92.0959C154.286 93.2841 156.769 94.3193 159.31 95.1955C161.29 95.8867 163.355 96.3048 165.448 96.4383C164.887 99.0755 164.349 101.705 163.735 104.282C163.283 106.449 162.639 108.572 161.81 110.625C155.513 112.163 147.919 111.171 142.054 109.897V109.875ZM163.773 123.925L165.236 123.599C166.592 123.402 168.267 123.387 169.396 124.16C171.958 125.903 171.124 128.244 169.586 130.025C167.982 127.704 166.02 125.653 163.773 123.948V123.925ZM169.745 131.549C170.095 131.958 170.298 132.473 170.321 133.011C170.154 133.633 167.759 133.921 165.062 134.065C166.767 133.539 168.357 132.693 169.745 131.571V131.549Z" fill="#DA2B74"/>
<path d="M109.567 140.135C109.411 140.422 109.319 140.74 109.298 141.067C109.276 141.394 109.326 141.721 109.442 142.027C109.559 142.332 109.74 142.609 109.973 142.839C110.207 143.068 110.487 143.244 110.795 143.355C118.555 145.993 141.601 152.358 158.781 141.969C159.067 141.794 159.311 141.559 159.496 141.279C159.68 141 159.801 140.683 159.848 140.351C159.896 140.019 159.87 139.681 159.772 139.361C159.674 139.04 159.506 138.746 159.281 138.498C155.848 134.822 150.361 123.963 158.781 94.627" stroke="#1E2454" stroke-width="0.75783" stroke-miterlimit="10" stroke-linecap="round"/>
</svg>
